<mxfile host="app.diagrams.net" agent="Mozilla/5.0 (Macintosh; Intel Mac OS X 10.15; rv:132.0) Gecko/20100101 Firefox/132.0" version="24.8.4" pages="2">
  <diagram name="第 1 页" id="NZ0fPZW0d-f_DHmHHCqM">
    <mxGraphModel dx="1242" dy="748" grid="1" gridSize="10" guides="1" tooltips="1" connect="1" arrows="1" fold="1" page="1" pageScale="1" pageWidth="827" pageHeight="1169" math="0" shadow="0">
      <root>
        <mxCell id="0" />
        <mxCell id="1" parent="0" />
        <mxCell id="HaxelWW4c8Smi8qCJJTY-5" value="&lt;font style=&quot;font-size: 20px;&quot;&gt;虚拟文件系统:open/close/read/write ...系统调用&lt;/font&gt;" style="rounded=1;whiteSpace=wrap;html=1;fillColor=#f8cecc;strokeColor=#b85450;" vertex="1" parent="1">
          <mxGeometry x="160" y="275" width="460" height="70" as="geometry" />
        </mxCell>
        <mxCell id="HaxelWW4c8Smi8qCJJTY-9" value="&lt;font style=&quot;font-size: 20px;&quot;&gt;page1&lt;/font&gt;" style="rounded=0;whiteSpace=wrap;html=1;fillColor=#d5e8d4;strokeColor=#82b366;movable=1;resizable=1;rotatable=1;deletable=1;editable=1;locked=0;connectable=1;" vertex="1" parent="1">
          <mxGeometry x="132.5" y="870" width="120" height="40" as="geometry" />
        </mxCell>
        <mxCell id="HaxelWW4c8Smi8qCJJTY-10" value="&lt;div&gt;扇&lt;/div&gt;&lt;div&gt;区&lt;/div&gt;" style="rounded=0;whiteSpace=wrap;html=1;fillColor=#d5e8d4;strokeColor=#82b366;movable=1;resizable=1;rotatable=1;deletable=1;editable=1;locked=0;connectable=1;" vertex="1" parent="1">
          <mxGeometry x="132.5" y="910" width="30" height="40" as="geometry" />
        </mxCell>
        <mxCell id="HaxelWW4c8Smi8qCJJTY-12" value="&lt;div&gt;扇&lt;/div&gt;&lt;div&gt;区&lt;/div&gt;" style="rounded=0;whiteSpace=wrap;html=1;fillColor=#d5e8d4;strokeColor=#82b366;movable=1;resizable=1;rotatable=1;deletable=1;editable=1;locked=0;connectable=1;" vertex="1" parent="1">
          <mxGeometry x="162.5" y="910" width="30" height="40" as="geometry" />
        </mxCell>
        <mxCell id="HaxelWW4c8Smi8qCJJTY-13" value="&lt;div&gt;扇&lt;/div&gt;&lt;div&gt;区&lt;/div&gt;" style="rounded=0;whiteSpace=wrap;html=1;fillColor=#d5e8d4;strokeColor=#82b366;movable=1;resizable=1;rotatable=1;deletable=1;editable=1;locked=0;connectable=1;" vertex="1" parent="1">
          <mxGeometry x="192.5" y="910" width="30" height="40" as="geometry" />
        </mxCell>
        <mxCell id="HaxelWW4c8Smi8qCJJTY-14" value="&lt;div&gt;扇&lt;/div&gt;&lt;div&gt;区&lt;/div&gt;" style="rounded=0;whiteSpace=wrap;html=1;fillColor=#d5e8d4;strokeColor=#82b366;movable=1;resizable=1;rotatable=1;deletable=1;editable=1;locked=0;connectable=1;" vertex="1" parent="1">
          <mxGeometry x="222.5" y="910" width="30" height="40" as="geometry" />
        </mxCell>
        <mxCell id="HaxelWW4c8Smi8qCJJTY-15" value="&lt;font style=&quot;font-size: 20px;&quot;&gt;page2&lt;/font&gt;" style="rounded=0;whiteSpace=wrap;html=1;fillColor=#d5e8d4;strokeColor=#82b366;movable=1;resizable=1;rotatable=1;deletable=1;editable=1;locked=0;connectable=1;" vertex="1" parent="1">
          <mxGeometry x="272.5" y="871" width="120" height="40" as="geometry" />
        </mxCell>
        <mxCell id="HaxelWW4c8Smi8qCJJTY-16" value="&lt;div&gt;扇&lt;/div&gt;&lt;div&gt;区&lt;/div&gt;" style="rounded=0;whiteSpace=wrap;html=1;fillColor=#d5e8d4;strokeColor=#82b366;movable=1;resizable=1;rotatable=1;deletable=1;editable=1;locked=0;connectable=1;" vertex="1" parent="1">
          <mxGeometry x="272.5" y="911" width="30" height="40" as="geometry" />
        </mxCell>
        <mxCell id="HaxelWW4c8Smi8qCJJTY-17" value="&lt;div&gt;扇&lt;/div&gt;&lt;div&gt;区&lt;/div&gt;" style="rounded=0;whiteSpace=wrap;html=1;fillColor=#d5e8d4;strokeColor=#82b366;movable=1;resizable=1;rotatable=1;deletable=1;editable=1;locked=0;connectable=1;" vertex="1" parent="1">
          <mxGeometry x="302.5" y="911" width="30" height="40" as="geometry" />
        </mxCell>
        <mxCell id="HaxelWW4c8Smi8qCJJTY-18" value="&lt;div&gt;扇&lt;/div&gt;&lt;div&gt;区&lt;/div&gt;" style="rounded=0;whiteSpace=wrap;html=1;fillColor=#d5e8d4;strokeColor=#82b366;movable=1;resizable=1;rotatable=1;deletable=1;editable=1;locked=0;connectable=1;" vertex="1" parent="1">
          <mxGeometry x="332.5" y="911" width="30" height="40" as="geometry" />
        </mxCell>
        <mxCell id="HaxelWW4c8Smi8qCJJTY-19" value="&lt;div&gt;扇&lt;/div&gt;&lt;div&gt;区&lt;/div&gt;" style="rounded=0;whiteSpace=wrap;html=1;fillColor=#d5e8d4;strokeColor=#82b366;movable=1;resizable=1;rotatable=1;deletable=1;editable=1;locked=0;connectable=1;" vertex="1" parent="1">
          <mxGeometry x="362.5" y="911" width="30" height="40" as="geometry" />
        </mxCell>
        <mxCell id="HaxelWW4c8Smi8qCJJTY-20" value="&lt;font style=&quot;font-size: 20px;&quot;&gt;page3&lt;/font&gt;" style="rounded=0;whiteSpace=wrap;html=1;fillColor=#d5e8d4;strokeColor=#82b366;movable=1;resizable=1;rotatable=1;deletable=1;editable=1;locked=0;connectable=1;" vertex="1" parent="1">
          <mxGeometry x="412.5" y="871" width="120" height="40" as="geometry" />
        </mxCell>
        <mxCell id="HaxelWW4c8Smi8qCJJTY-21" value="&lt;div&gt;扇&lt;/div&gt;&lt;div&gt;区&lt;/div&gt;" style="rounded=0;whiteSpace=wrap;html=1;fillColor=#d5e8d4;strokeColor=#82b366;movable=1;resizable=1;rotatable=1;deletable=1;editable=1;locked=0;connectable=1;" vertex="1" parent="1">
          <mxGeometry x="412.5" y="911" width="30" height="40" as="geometry" />
        </mxCell>
        <mxCell id="HaxelWW4c8Smi8qCJJTY-22" value="&lt;div&gt;扇&lt;/div&gt;&lt;div&gt;区&lt;/div&gt;" style="rounded=0;whiteSpace=wrap;html=1;fillColor=#d5e8d4;strokeColor=#82b366;movable=1;resizable=1;rotatable=1;deletable=1;editable=1;locked=0;connectable=1;" vertex="1" parent="1">
          <mxGeometry x="442.5" y="911" width="30" height="40" as="geometry" />
        </mxCell>
        <mxCell id="HaxelWW4c8Smi8qCJJTY-23" value="&lt;div&gt;扇&lt;/div&gt;&lt;div&gt;区&lt;/div&gt;" style="rounded=0;whiteSpace=wrap;html=1;fillColor=#d5e8d4;strokeColor=#82b366;movable=1;resizable=1;rotatable=1;deletable=1;editable=1;locked=0;connectable=1;" vertex="1" parent="1">
          <mxGeometry x="472.5" y="911" width="30" height="40" as="geometry" />
        </mxCell>
        <mxCell id="HaxelWW4c8Smi8qCJJTY-24" value="&lt;div&gt;扇&lt;/div&gt;&lt;div&gt;区&lt;/div&gt;" style="rounded=0;whiteSpace=wrap;html=1;fillColor=#d5e8d4;strokeColor=#82b366;movable=1;resizable=1;rotatable=1;deletable=1;editable=1;locked=0;connectable=1;" vertex="1" parent="1">
          <mxGeometry x="502.5" y="911" width="30" height="40" as="geometry" />
        </mxCell>
        <mxCell id="HaxelWW4c8Smi8qCJJTY-25" value="&lt;font style=&quot;font-size: 20px;&quot;&gt;page4&lt;/font&gt;" style="rounded=0;whiteSpace=wrap;html=1;fillColor=#d5e8d4;strokeColor=#82b366;movable=1;resizable=1;rotatable=1;deletable=1;editable=1;locked=0;connectable=1;" vertex="1" parent="1">
          <mxGeometry x="552.5" y="872" width="120" height="40" as="geometry" />
        </mxCell>
        <mxCell id="HaxelWW4c8Smi8qCJJTY-26" value="&lt;div&gt;扇&lt;/div&gt;&lt;div&gt;区&lt;/div&gt;" style="rounded=0;whiteSpace=wrap;html=1;fillColor=#d5e8d4;strokeColor=#82b366;movable=1;resizable=1;rotatable=1;deletable=1;editable=1;locked=0;connectable=1;" vertex="1" parent="1">
          <mxGeometry x="552.5" y="912" width="30" height="40" as="geometry" />
        </mxCell>
        <mxCell id="HaxelWW4c8Smi8qCJJTY-27" value="&lt;div&gt;扇&lt;/div&gt;&lt;div&gt;区&lt;/div&gt;" style="rounded=0;whiteSpace=wrap;html=1;fillColor=#d5e8d4;strokeColor=#82b366;movable=1;resizable=1;rotatable=1;deletable=1;editable=1;locked=0;connectable=1;" vertex="1" parent="1">
          <mxGeometry x="582.5" y="912" width="30" height="40" as="geometry" />
        </mxCell>
        <mxCell id="HaxelWW4c8Smi8qCJJTY-28" value="&lt;div&gt;扇&lt;/div&gt;&lt;div&gt;区&lt;/div&gt;" style="rounded=0;whiteSpace=wrap;html=1;fillColor=#d5e8d4;strokeColor=#82b366;movable=1;resizable=1;rotatable=1;deletable=1;editable=1;locked=0;connectable=1;" vertex="1" parent="1">
          <mxGeometry x="612.5" y="912" width="30" height="40" as="geometry" />
        </mxCell>
        <mxCell id="HaxelWW4c8Smi8qCJJTY-29" value="&lt;div&gt;扇&lt;/div&gt;&lt;div&gt;区&lt;/div&gt;" style="rounded=0;whiteSpace=wrap;html=1;fillColor=#d5e8d4;strokeColor=#82b366;movable=1;resizable=1;rotatable=1;deletable=1;editable=1;locked=0;connectable=1;" vertex="1" parent="1">
          <mxGeometry x="642.5" y="912" width="30" height="40" as="geometry" />
        </mxCell>
        <mxCell id="HaxelWW4c8Smi8qCJJTY-58" style="edgeStyle=orthogonalEdgeStyle;rounded=0;orthogonalLoop=1;jettySize=auto;html=1;exitX=1;exitY=0.25;exitDx=0;exitDy=0;entryX=0;entryY=0.25;entryDx=0;entryDy=0;endArrow=none;endFill=0;" edge="1" parent="1" source="HaxelWW4c8Smi8qCJJTY-30" target="HaxelWW4c8Smi8qCJJTY-32">
          <mxGeometry relative="1" as="geometry" />
        </mxCell>
        <mxCell id="HaxelWW4c8Smi8qCJJTY-30" value="&lt;div style=&quot;font-size: 20px;&quot;&gt;&lt;font style=&quot;font-size: 20px;&quot;&gt;文件1缓冲区&lt;/font&gt;&lt;/div&gt;&lt;div style=&quot;font-size: 20px;&quot;&gt;&lt;font style=&quot;font-size: 20px;&quot;&gt;page1&lt;/font&gt;&lt;/div&gt;&lt;div style=&quot;font-size: 20px;&quot;&gt;&lt;font style=&quot;font-size: 20px;&quot;&gt;page2&lt;/font&gt;&lt;/div&gt;&lt;div style=&quot;font-size: 20px;&quot;&gt;&lt;font style=&quot;font-size: 20px;&quot;&gt;...&lt;br&gt;&lt;/font&gt;&lt;/div&gt;" style="rounded=1;whiteSpace=wrap;html=1;fillColor=#d5e8d4;strokeColor=#82b366;" vertex="1" parent="1">
          <mxGeometry x="287.5" y="600" width="120" height="120" as="geometry" />
        </mxCell>
        <mxCell id="HaxelWW4c8Smi8qCJJTY-32" value="&lt;div style=&quot;font-size: 20px;&quot;&gt;&lt;font style=&quot;font-size: 20px;&quot;&gt;PageCache&lt;/font&gt;&lt;/div&gt;&lt;div style=&quot;font-size: 20px;&quot;&gt;&lt;font style=&quot;font-size: 20px;&quot;&gt;page1&lt;/font&gt;&lt;/div&gt;&lt;div style=&quot;font-size: 20px;&quot;&gt;&lt;font style=&quot;font-size: 20px;&quot;&gt;page2&lt;/font&gt;&lt;/div&gt;&lt;div style=&quot;font-size: 20px;&quot;&gt;&lt;font style=&quot;font-size: 20px;&quot;&gt;page3&lt;/font&gt;&lt;/div&gt;&lt;div style=&quot;font-size: 20px;&quot;&gt;&lt;font style=&quot;font-size: 20px;&quot;&gt;page4&lt;/font&gt;&lt;/div&gt;&lt;div style=&quot;font-size: 20px;&quot;&gt;&lt;font style=&quot;font-size: 20px;&quot;&gt;...&lt;br&gt;&lt;/font&gt;&lt;/div&gt;" style="rounded=1;whiteSpace=wrap;html=1;fillColor=#d5e8d4;strokeColor=#82b366;" vertex="1" parent="1">
          <mxGeometry x="462.5" y="635" width="120" height="180" as="geometry" />
        </mxCell>
        <mxCell id="HaxelWW4c8Smi8qCJJTY-59" style="edgeStyle=orthogonalEdgeStyle;rounded=0;orthogonalLoop=1;jettySize=auto;html=1;exitX=1;exitY=0.75;exitDx=0;exitDy=0;entryX=0;entryY=0.75;entryDx=0;entryDy=0;endArrow=none;endFill=0;" edge="1" parent="1" source="HaxelWW4c8Smi8qCJJTY-34" target="HaxelWW4c8Smi8qCJJTY-32">
          <mxGeometry relative="1" as="geometry" />
        </mxCell>
        <mxCell id="HaxelWW4c8Smi8qCJJTY-34" value="&lt;div style=&quot;font-size: 20px;&quot;&gt;&lt;font style=&quot;font-size: 20px;&quot;&gt;文件2缓冲区&lt;/font&gt;&lt;/div&gt;&lt;div style=&quot;font-size: 20px;&quot;&gt;&lt;font style=&quot;font-size: 20px;&quot;&gt;page3&lt;/font&gt;&lt;/div&gt;&lt;div style=&quot;font-size: 20px;&quot;&gt;&lt;font style=&quot;font-size: 20px;&quot;&gt;page4&lt;/font&gt;&lt;/div&gt;&lt;div style=&quot;font-size: 20px;&quot;&gt;&lt;font style=&quot;font-size: 20px;&quot;&gt;...&lt;br&gt;&lt;/font&gt;&lt;/div&gt;" style="rounded=1;whiteSpace=wrap;html=1;fillColor=#d5e8d4;strokeColor=#82b366;" vertex="1" parent="1">
          <mxGeometry x="287.5" y="730" width="120" height="120" as="geometry" />
        </mxCell>
        <mxCell id="HaxelWW4c8Smi8qCJJTY-35" value="&lt;font style=&quot;font-size: 20px;&quot;&gt;文件系统&lt;/font&gt;" style="rounded=1;whiteSpace=wrap;html=1;fillColor=#f8cecc;strokeColor=#b85450;gradientColor=#ea6b66;" vertex="1" parent="1">
          <mxGeometry x="185" y="375" width="435" height="90" as="geometry" />
        </mxCell>
        <mxCell id="HaxelWW4c8Smi8qCJJTY-36" value="ext2/3/4" style="rounded=1;whiteSpace=wrap;html=1;fillColor=#e6d0de;gradientColor=#d5739d;strokeColor=#996185;" vertex="1" parent="1">
          <mxGeometry x="225" y="425" width="75" height="30" as="geometry" />
        </mxCell>
        <mxCell id="HaxelWW4c8Smi8qCJJTY-39" value="XFS" style="rounded=1;whiteSpace=wrap;html=1;fillColor=#e6d0de;gradientColor=#d5739d;strokeColor=#996185;" vertex="1" parent="1">
          <mxGeometry x="500" y="425" width="75" height="30" as="geometry" />
        </mxCell>
        <mxCell id="HaxelWW4c8Smi8qCJJTY-40" value="" style="swimlane;startSize=0;dashed=1;strokeWidth=3;" vertex="1" parent="1">
          <mxGeometry x="86" y="245" width="655" height="260" as="geometry" />
        </mxCell>
        <mxCell id="HaxelWW4c8Smi8qCJJTY-43" value="" style="swimlane;startSize=0;dashed=1;strokeWidth=3;" vertex="1" parent="1">
          <mxGeometry x="86" y="20" width="654" height="150" as="geometry" />
        </mxCell>
        <mxCell id="HaxelWW4c8Smi8qCJJTY-2" value="&lt;font style=&quot;font-size: 20px;&quot;&gt;应用程序&lt;/font&gt;" style="rounded=1;whiteSpace=wrap;html=1;fillColor=#dae8fc;strokeColor=#6c8ebf;" vertex="1" parent="HaxelWW4c8Smi8qCJJTY-43">
          <mxGeometry x="71.5" y="10" width="440" height="50" as="geometry" />
        </mxCell>
        <mxCell id="HaxelWW4c8Smi8qCJJTY-3" value="&lt;font style=&quot;font-size: 20px;&quot;&gt;C库函数&lt;/font&gt;" style="rounded=1;whiteSpace=wrap;html=1;fillColor=#dae8fc;strokeColor=#6c8ebf;" vertex="1" parent="HaxelWW4c8Smi8qCJJTY-43">
          <mxGeometry x="344" y="70" width="130" height="60" as="geometry" />
        </mxCell>
        <mxCell id="HaxelWW4c8Smi8qCJJTY-48" value="" style="endArrow=none;html=1;rounded=0;exitX=0.737;exitY=-0.029;exitDx=0;exitDy=0;exitPerimeter=0;" edge="1" parent="HaxelWW4c8Smi8qCJJTY-43" source="HaxelWW4c8Smi8qCJJTY-5">
          <mxGeometry width="50" height="50" relative="1" as="geometry">
            <mxPoint x="364" y="180" as="sourcePoint" />
            <mxPoint x="414" y="130" as="targetPoint" />
          </mxGeometry>
        </mxCell>
        <mxCell id="HaxelWW4c8Smi8qCJJTY-49" value="" style="endArrow=none;html=1;rounded=0;entryX=0.272;entryY=1.06;entryDx=0;entryDy=0;entryPerimeter=0;" edge="1" parent="1">
          <mxGeometry width="50" height="50" relative="1" as="geometry">
            <mxPoint x="277" y="262" as="sourcePoint" />
            <mxPoint x="277.18000000000006" y="85" as="targetPoint" />
          </mxGeometry>
        </mxCell>
        <mxCell id="HaxelWW4c8Smi8qCJJTY-50" value="" style="swimlane;startSize=0;dashed=1;strokeWidth=3;" vertex="1" parent="1">
          <mxGeometry x="82" y="560" width="662.5" height="410" as="geometry" />
        </mxCell>
        <mxCell id="HaxelWW4c8Smi8qCJJTY-51" value="" style="endArrow=none;html=1;rounded=0;entryX=0.393;entryY=0.978;entryDx=0;entryDy=0;entryPerimeter=0;" edge="1" parent="HaxelWW4c8Smi8qCJJTY-50">
          <mxGeometry width="50" height="50" relative="1" as="geometry">
            <mxPoint x="276.5" y="37" as="sourcePoint" />
            <mxPoint x="276.8949999999999" y="-88" as="targetPoint" />
          </mxGeometry>
        </mxCell>
        <mxCell id="HaxelWW4c8Smi8qCJJTY-53" value="" style="endArrow=none;html=1;rounded=0;exitX=0.75;exitY=0;exitDx=0;exitDy=0;" edge="1" parent="HaxelWW4c8Smi8qCJJTY-50" source="HaxelWW4c8Smi8qCJJTY-9">
          <mxGeometry width="50" height="50" relative="1" as="geometry">
            <mxPoint x="155" y="40" as="sourcePoint" />
            <mxPoint x="155" y="-90" as="targetPoint" />
          </mxGeometry>
        </mxCell>
        <mxCell id="HaxelWW4c8Smi8qCJJTY-55" value="&lt;font style=&quot;font-size: 20px;&quot;&gt;O_DIRECT&lt;/font&gt;" style="edgeLabel;html=1;align=center;verticalAlign=middle;resizable=0;points=[];" vertex="1" connectable="0" parent="HaxelWW4c8Smi8qCJJTY-53">
          <mxGeometry x="-0.0154" y="-2" relative="1" as="geometry">
            <mxPoint y="10" as="offset" />
          </mxGeometry>
        </mxCell>
        <mxCell id="HaxelWW4c8Smi8qCJJTY-60" value="&lt;font style=&quot;font-size: 20px;&quot;&gt;目录缓存&lt;/font&gt;" style="rounded=1;whiteSpace=wrap;html=1;fillColor=#d5e8d4;strokeColor=#82b366;" vertex="1" parent="HaxelWW4c8Smi8qCJJTY-50">
          <mxGeometry x="531" y="50" width="120" height="60" as="geometry" />
        </mxCell>
        <mxCell id="HaxelWW4c8Smi8qCJJTY-61" value="&lt;div&gt;&lt;font style=&quot;font-size: 20px;&quot;&gt;索引节点&lt;/font&gt;&lt;/div&gt;&lt;div&gt;&lt;font style=&quot;font-size: 20px;&quot;&gt;缓存&lt;/font&gt;&lt;/div&gt;" style="rounded=1;whiteSpace=wrap;html=1;fillColor=#d5e8d4;strokeColor=#82b366;" vertex="1" parent="HaxelWW4c8Smi8qCJJTY-50">
          <mxGeometry x="531" y="160" width="120" height="60" as="geometry" />
        </mxCell>
      </root>
    </mxGraphModel>
  </diagram>
  <diagram id="hmnXgwaIo_zHNG6zfXur" name="第 2 页">
    <mxGraphModel dx="1242" dy="4048" grid="1" gridSize="10" guides="1" tooltips="1" connect="0" arrows="1" fold="1" page="1" pageScale="1" pageWidth="4681" pageHeight="3300" math="0" shadow="0">
      <root>
        <object label="" id="0">
          <mxCell />
        </object>
        <mxCell id="1" parent="0" />
        <mxCell id="mPyixSlXerw-gBXY45cz-93" value="" style="swimlane;startSize=0;rounded=0;strokeColor=default;align=center;verticalAlign=middle;fontFamily=Helvetica;fontSize=12;fontColor=default;fillColor=default;dashed=1;" parent="1" vertex="1">
          <mxGeometry x="20" y="-3170" width="900" height="680" as="geometry" />
        </mxCell>
        <mxCell id="mPyixSlXerw-gBXY45cz-94" value="&lt;font size=&quot;1&quot;&gt;&lt;b&gt;&lt;font style=&quot;font-size: 22px;&quot; color=&quot;#ff3333&quot;&gt;动态内存分配(DMA) 之首次适应算法&lt;/font&gt;&lt;/b&gt;&lt;/font&gt;" style="text;html=1;align=center;verticalAlign=middle;resizable=0;points=[];autosize=1;strokeColor=none;fillColor=none;fontFamily=Helvetica;fontSize=12;fontColor=default;" parent="mPyixSlXerw-gBXY45cz-93" vertex="1">
          <mxGeometry x="120" y="22" width="380" height="40" as="geometry" />
        </mxCell>
        <mxCell id="mPyixSlXerw-gBXY45cz-88" value="从链表头开始向后查找第一个有足够空闲空间的块" style="shape=callout;whiteSpace=wrap;html=1;perimeter=calloutPerimeter;rounded=0;strokeColor=#666666;align=center;verticalAlign=middle;fontFamily=Helvetica;fontSize=12;fontColor=#333333;fillColor=#f5f5f5;" parent="mPyixSlXerw-gBXY45cz-93" vertex="1">
          <mxGeometry x="140" y="518" width="460" height="50" as="geometry" />
        </mxCell>
        <mxCell id="mPyixSlXerw-gBXY45cz-73" value="从链表头开始向后查找第一个有足够空闲空间的块" style="shape=callout;whiteSpace=wrap;html=1;perimeter=calloutPerimeter;rounded=0;strokeColor=#666666;align=center;verticalAlign=middle;fontFamily=Helvetica;fontSize=12;fontColor=#333333;fillColor=#f5f5f5;" parent="mPyixSlXerw-gBXY45cz-93" vertex="1">
          <mxGeometry x="140" y="210" width="460" height="50" as="geometry" />
        </mxCell>
        <mxCell id="mPyixSlXerw-gBXY45cz-61" value="从链表头开始向后查找第一个有足够空闲空间的块" style="shape=callout;whiteSpace=wrap;html=1;perimeter=calloutPerimeter;rounded=0;strokeColor=#666666;align=center;verticalAlign=middle;fontFamily=Helvetica;fontSize=12;fontColor=#333333;fillColor=#f5f5f5;" parent="mPyixSlXerw-gBXY45cz-93" vertex="1">
          <mxGeometry x="330" y="360" width="460" height="50" as="geometry" />
        </mxCell>
        <mxCell id="mPyixSlXerw-gBXY45cz-21" value="各个内存块按照首地址值从低到高用链表排列连接,因为内存回收时是要比较前后指针是否是连续的，连续的话就需要合并" style="shape=callout;whiteSpace=wrap;html=1;perimeter=calloutPerimeter;rounded=0;strokeColor=#666666;align=center;verticalAlign=middle;fontFamily=Helvetica;fontSize=12;fontColor=#333333;fillColor=#f5f5f5;position2=0.47;" parent="mPyixSlXerw-gBXY45cz-93" vertex="1">
          <mxGeometry x="510" y="10" width="300" height="98" as="geometry" />
        </mxCell>
        <mxCell id="F5CfzdPojyZJFSuZLYBu-12" value="addr:length" style="rounded=0;whiteSpace=wrap;html=1;fillColor=#60a917;fontColor=#ffffff;strokeColor=#2D7600;" parent="1" vertex="1">
          <mxGeometry x="130" y="-3245" width="90" height="40" as="geometry" />
        </mxCell>
        <mxCell id="mPyixSlXerw-gBXY45cz-7" value="每一块内存的表示都是首地址加上内存可用长度" style="shape=callout;whiteSpace=wrap;html=1;perimeter=calloutPerimeter;rounded=0;strokeColor=#666666;align=center;verticalAlign=middle;fontFamily=Helvetica;fontSize=12;fontColor=#333333;fillColor=#f5f5f5;" parent="1" vertex="1">
          <mxGeometry x="142.5" y="-3275" width="307.5" height="50" as="geometry" />
        </mxCell>
        <mxCell id="mPyixSlXerw-gBXY45cz-10" value="常用内存分配算法图解" style="rounded=1;whiteSpace=wrap;html=1;strokeColor=#6c8ebf;align=center;verticalAlign=middle;fontFamily=Helvetica;fontSize=12;fillColor=#dae8fc;" parent="1" vertex="1">
          <mxGeometry x="530" y="-3280" width="200" height="60" as="geometry" />
        </mxCell>
        <mxCell id="mPyixSlXerw-gBXY45cz-12" value="" style="shape=flexArrow;endArrow=classic;html=1;rounded=0;fontFamily=Helvetica;fontSize=12;fontColor=default;fillColor=#ffe6cc;strokeColor=#d79b00;" parent="1" edge="1">
          <mxGeometry width="50" height="50" relative="1" as="geometry">
            <mxPoint x="70" y="-3090" as="sourcePoint" />
            <mxPoint x="70" y="-2530" as="targetPoint" />
          </mxGeometry>
        </mxCell>
        <mxCell id="mPyixSlXerw-gBXY45cz-13" value="时序" style="shape=callout;whiteSpace=wrap;html=1;perimeter=calloutPerimeter;rounded=0;align=center;verticalAlign=middle;fontFamily=Helvetica;fontSize=12;fillColor=#f5f5f5;strokeColor=#666666;fontColor=#333333;" parent="1" vertex="1">
          <mxGeometry x="40" y="-3140" width="60" height="50" as="geometry" />
        </mxCell>
        <mxCell id="mPyixSlXerw-gBXY45cz-19" value="" style="endArrow=none;dashed=1;html=1;rounded=0;fontFamily=Helvetica;fontSize=12;fontColor=default;" parent="1" edge="1">
          <mxGeometry width="50" height="50" relative="1" as="geometry">
            <mxPoint x="80" y="-3040" as="sourcePoint" />
            <mxPoint x="270" y="-3040" as="targetPoint" />
          </mxGeometry>
        </mxCell>
        <mxCell id="mPyixSlXerw-gBXY45cz-20" value="T0 内存分配前" style="edgeLabel;html=1;align=center;verticalAlign=middle;resizable=0;points=[];rounded=0;strokeColor=default;fontFamily=Helvetica;fontSize=12;fontColor=default;fillColor=default;" parent="mPyixSlXerw-gBXY45cz-19" vertex="1" connectable="0">
          <mxGeometry x="-0.1537" y="-1" relative="1" as="geometry">
            <mxPoint as="offset" />
          </mxGeometry>
        </mxCell>
        <mxCell id="mPyixSlXerw-gBXY45cz-22" value="" style="endArrow=none;dashed=1;html=1;dashPattern=1 3;strokeWidth=2;rounded=0;fontFamily=Helvetica;fontSize=12;fontColor=default;exitX=1;exitY=0;exitDx=0;exitDy=0;entryX=0.467;entryY=0.918;entryDx=0;entryDy=0;entryPerimeter=0;" parent="1" target="mPyixSlXerw-gBXY45cz-21" edge="1">
          <mxGeometry width="50" height="50" relative="1" as="geometry">
            <mxPoint x="560" y="-3060" as="sourcePoint" />
            <mxPoint x="690" y="-3108" as="targetPoint" />
          </mxGeometry>
        </mxCell>
        <mxCell id="mPyixSlXerw-gBXY45cz-31" value="" style="endArrow=none;dashed=1;html=1;rounded=0;fontFamily=Helvetica;fontSize=12;fontColor=default;" parent="1" edge="1">
          <mxGeometry width="50" height="50" relative="1" as="geometry">
            <mxPoint x="80" y="-2888" as="sourcePoint" />
            <mxPoint x="270" y="-2888" as="targetPoint" />
            <Array as="points">
              <mxPoint x="180" y="-2888" />
            </Array>
          </mxGeometry>
        </mxCell>
        <mxCell id="mPyixSlXerw-gBXY45cz-32" value="T1 用户申请500字节" style="edgeLabel;html=1;align=center;verticalAlign=middle;resizable=0;points=[];rounded=0;strokeColor=default;fontFamily=Helvetica;fontSize=12;fontColor=#FF3333;fillColor=default;" parent="mPyixSlXerw-gBXY45cz-31" vertex="1" connectable="0">
          <mxGeometry x="-0.1537" y="-1" relative="1" as="geometry">
            <mxPoint as="offset" />
          </mxGeometry>
        </mxCell>
        <mxCell id="mPyixSlXerw-gBXY45cz-38" value="0x7ffe3e338000:1024" style="rounded=0;whiteSpace=wrap;html=1;strokeColor=#6c8ebf;align=center;verticalAlign=middle;fontFamily=Helvetica;fontSize=12;fillColor=#dae8fc;" parent="1" vertex="1">
          <mxGeometry x="280" y="-3058" width="140" height="20" as="geometry" />
        </mxCell>
        <mxCell id="mPyixSlXerw-gBXY45cz-39" value="" style="whiteSpace=wrap;html=1;rounded=0;" parent="1" vertex="1">
          <mxGeometry x="280" y="-3038" width="140" height="30" as="geometry" />
        </mxCell>
        <mxCell id="mPyixSlXerw-gBXY45cz-40" value="0x7ffe3e338000:1024" style="rounded=0;whiteSpace=wrap;html=1;strokeColor=#6c8ebf;align=center;verticalAlign=middle;fontFamily=Helvetica;fontSize=12;fillColor=#dae8fc;" parent="1" vertex="1">
          <mxGeometry x="480" y="-3058" width="140" height="20" as="geometry" />
        </mxCell>
        <mxCell id="mPyixSlXerw-gBXY45cz-41" value="" style="whiteSpace=wrap;html=1;rounded=0;" parent="1" vertex="1">
          <mxGeometry x="480" y="-3038" width="140" height="30" as="geometry" />
        </mxCell>
        <mxCell id="mPyixSlXerw-gBXY45cz-42" value="0x7ffe3e338000:1024" style="rounded=0;whiteSpace=wrap;html=1;strokeColor=#6c8ebf;align=center;verticalAlign=middle;fontFamily=Helvetica;fontSize=12;fillColor=#dae8fc;" parent="1" vertex="1">
          <mxGeometry x="690" y="-3058" width="140" height="20" as="geometry" />
        </mxCell>
        <mxCell id="mPyixSlXerw-gBXY45cz-43" value="" style="whiteSpace=wrap;html=1;rounded=0;" parent="1" vertex="1">
          <mxGeometry x="690" y="-3038" width="140" height="30" as="geometry" />
        </mxCell>
        <mxCell id="mPyixSlXerw-gBXY45cz-45" value="" style="shape=flexArrow;endArrow=classic;html=1;rounded=0;fontFamily=Helvetica;fontSize=12;fontColor=default;" parent="1" edge="1">
          <mxGeometry width="50" height="50" relative="1" as="geometry">
            <mxPoint x="430" y="-3028" as="sourcePoint" />
            <mxPoint x="470" y="-3028" as="targetPoint" />
          </mxGeometry>
        </mxCell>
        <mxCell id="mPyixSlXerw-gBXY45cz-46" value="" style="shape=flexArrow;endArrow=classic;html=1;rounded=0;fontFamily=Helvetica;fontSize=12;fontColor=default;" parent="1" edge="1">
          <mxGeometry width="50" height="50" relative="1" as="geometry">
            <mxPoint x="640" y="-3028" as="sourcePoint" />
            <mxPoint x="680" y="-3028" as="targetPoint" />
          </mxGeometry>
        </mxCell>
        <mxCell id="mPyixSlXerw-gBXY45cz-47" value="0x7ffe3e338000:724" style="rounded=0;whiteSpace=wrap;html=1;strokeColor=#6c8ebf;align=center;verticalAlign=middle;fontFamily=Helvetica;fontSize=12;fillColor=#dae8fc;" parent="1" vertex="1">
          <mxGeometry x="280" y="-2908" width="140" height="20" as="geometry" />
        </mxCell>
        <mxCell id="mPyixSlXerw-gBXY45cz-48" value="500" style="whiteSpace=wrap;html=1;rounded=0;fillColor=#60a917;fontColor=#ffffff;strokeColor=#2D7600;" parent="1" vertex="1">
          <mxGeometry x="280" y="-2888" width="60" height="30" as="geometry" />
        </mxCell>
        <mxCell id="mPyixSlXerw-gBXY45cz-49" value="0x7ffe3e338000:1024" style="rounded=0;whiteSpace=wrap;html=1;strokeColor=#6c8ebf;align=center;verticalAlign=middle;fontFamily=Helvetica;fontSize=12;fillColor=#dae8fc;" parent="1" vertex="1">
          <mxGeometry x="480" y="-2908" width="140" height="20" as="geometry" />
        </mxCell>
        <mxCell id="mPyixSlXerw-gBXY45cz-50" value="" style="whiteSpace=wrap;html=1;rounded=0;" parent="1" vertex="1">
          <mxGeometry x="480" y="-2888" width="140" height="30" as="geometry" />
        </mxCell>
        <mxCell id="mPyixSlXerw-gBXY45cz-51" value="0x7ffe3e338000:1024" style="rounded=0;whiteSpace=wrap;html=1;strokeColor=#6c8ebf;align=center;verticalAlign=middle;fontFamily=Helvetica;fontSize=12;fillColor=#dae8fc;" parent="1" vertex="1">
          <mxGeometry x="690" y="-2908" width="140" height="20" as="geometry" />
        </mxCell>
        <mxCell id="mPyixSlXerw-gBXY45cz-52" value="" style="whiteSpace=wrap;html=1;rounded=0;" parent="1" vertex="1">
          <mxGeometry x="690" y="-2888" width="140" height="30" as="geometry" />
        </mxCell>
        <mxCell id="mPyixSlXerw-gBXY45cz-53" value="" style="shape=flexArrow;endArrow=classic;html=1;rounded=0;fontFamily=Helvetica;fontSize=12;fontColor=default;" parent="1" edge="1">
          <mxGeometry width="50" height="50" relative="1" as="geometry">
            <mxPoint x="430" y="-2878" as="sourcePoint" />
            <mxPoint x="470" y="-2878" as="targetPoint" />
          </mxGeometry>
        </mxCell>
        <mxCell id="mPyixSlXerw-gBXY45cz-54" value="" style="shape=flexArrow;endArrow=classic;html=1;rounded=0;fontFamily=Helvetica;fontSize=12;fontColor=default;" parent="1" edge="1">
          <mxGeometry width="50" height="50" relative="1" as="geometry">
            <mxPoint x="640" y="-2878" as="sourcePoint" />
            <mxPoint x="680" y="-2878" as="targetPoint" />
          </mxGeometry>
        </mxCell>
        <mxCell id="mPyixSlXerw-gBXY45cz-55" value="724" style="whiteSpace=wrap;html=1;rounded=0;" parent="1" vertex="1">
          <mxGeometry x="340" y="-2888" width="80" height="30" as="geometry" />
        </mxCell>
        <mxCell id="mPyixSlXerw-gBXY45cz-56" value="" style="endArrow=none;dashed=1;html=1;rounded=0;fontFamily=Helvetica;fontSize=12;fontColor=default;exitX=1.022;exitY=0.53;exitDx=0;exitDy=0;exitPerimeter=0;entryX=0.495;entryY=1.008;entryDx=0;entryDy=0;entryPerimeter=0;" parent="1" source="F5CfzdPojyZJFSuZLYBu-12" target="mPyixSlXerw-gBXY45cz-7" edge="1">
          <mxGeometry width="50" height="50" relative="1" as="geometry">
            <mxPoint x="220" y="-3015" as="sourcePoint" />
            <mxPoint x="270" y="-3065" as="targetPoint" />
          </mxGeometry>
        </mxCell>
        <mxCell id="mPyixSlXerw-gBXY45cz-62" value="T2用户申请800字节" style="edgeLabel;html=1;align=center;verticalAlign=middle;resizable=0;points=[];rounded=0;strokeColor=default;fontFamily=Helvetica;fontSize=12;fontColor=#FF3333;fillColor=default;" parent="1" vertex="1" connectable="0">
          <mxGeometry x="155" y="-2734" as="geometry" />
        </mxCell>
        <mxCell id="mPyixSlXerw-gBXY45cz-63" value="0x7ffe3e338000:724" style="rounded=0;whiteSpace=wrap;html=1;strokeColor=#6c8ebf;align=center;verticalAlign=middle;fontFamily=Helvetica;fontSize=12;fillColor=#dae8fc;" parent="1" vertex="1">
          <mxGeometry x="275" y="-2755" width="140" height="20" as="geometry" />
        </mxCell>
        <mxCell id="mPyixSlXerw-gBXY45cz-64" value="500" style="whiteSpace=wrap;html=1;rounded=0;fillColor=#60a917;fontColor=#ffffff;strokeColor=#2D7600;" parent="1" vertex="1">
          <mxGeometry x="275" y="-2735" width="60" height="30" as="geometry" />
        </mxCell>
        <mxCell id="mPyixSlXerw-gBXY45cz-65" value="0x7ffe3e338000:424" style="rounded=0;whiteSpace=wrap;html=1;strokeColor=#6c8ebf;align=center;verticalAlign=middle;fontFamily=Helvetica;fontSize=12;fillColor=#dae8fc;" parent="1" vertex="1">
          <mxGeometry x="475" y="-2755" width="140" height="20" as="geometry" />
        </mxCell>
        <mxCell id="mPyixSlXerw-gBXY45cz-66" value="800" style="whiteSpace=wrap;html=1;rounded=0;fillColor=#60a917;fontColor=#ffffff;strokeColor=#2D7600;" parent="1" vertex="1">
          <mxGeometry x="475" y="-2735" width="95" height="30" as="geometry" />
        </mxCell>
        <mxCell id="mPyixSlXerw-gBXY45cz-67" value="0x7ffe3e338000:1024" style="rounded=0;whiteSpace=wrap;html=1;strokeColor=#6c8ebf;align=center;verticalAlign=middle;fontFamily=Helvetica;fontSize=12;fillColor=#dae8fc;" parent="1" vertex="1">
          <mxGeometry x="685" y="-2755" width="140" height="20" as="geometry" />
        </mxCell>
        <mxCell id="mPyixSlXerw-gBXY45cz-68" value="" style="whiteSpace=wrap;html=1;rounded=0;" parent="1" vertex="1">
          <mxGeometry x="685" y="-2735" width="140" height="30" as="geometry" />
        </mxCell>
        <mxCell id="mPyixSlXerw-gBXY45cz-69" value="" style="shape=flexArrow;endArrow=classic;html=1;rounded=0;fontFamily=Helvetica;fontSize=12;fontColor=default;" parent="1" edge="1">
          <mxGeometry width="50" height="50" relative="1" as="geometry">
            <mxPoint x="425" y="-2725" as="sourcePoint" />
            <mxPoint x="465" y="-2725" as="targetPoint" />
          </mxGeometry>
        </mxCell>
        <mxCell id="mPyixSlXerw-gBXY45cz-70" value="" style="shape=flexArrow;endArrow=classic;html=1;rounded=0;fontFamily=Helvetica;fontSize=12;fontColor=default;" parent="1" edge="1">
          <mxGeometry width="50" height="50" relative="1" as="geometry">
            <mxPoint x="635" y="-2725" as="sourcePoint" />
            <mxPoint x="675" y="-2725" as="targetPoint" />
          </mxGeometry>
        </mxCell>
        <mxCell id="mPyixSlXerw-gBXY45cz-71" value="724" style="whiteSpace=wrap;html=1;rounded=0;" parent="1" vertex="1">
          <mxGeometry x="335" y="-2735" width="80" height="30" as="geometry" />
        </mxCell>
        <mxCell id="mPyixSlXerw-gBXY45cz-75" value="424" style="whiteSpace=wrap;html=1;rounded=0;" parent="1" vertex="1">
          <mxGeometry x="570" y="-2735" width="45" height="30" as="geometry" />
        </mxCell>
        <mxCell id="mPyixSlXerw-gBXY45cz-76" value="" style="endArrow=none;dashed=1;html=1;rounded=0;fontFamily=Helvetica;fontSize=12;fontColor=default;" parent="1" edge="1">
          <mxGeometry width="50" height="50" relative="1" as="geometry">
            <mxPoint x="90" y="-2580" as="sourcePoint" />
            <mxPoint x="280" y="-2580" as="targetPoint" />
            <Array as="points">
              <mxPoint x="190" y="-2580" />
            </Array>
          </mxGeometry>
        </mxCell>
        <mxCell id="mPyixSlXerw-gBXY45cz-77" value="T3 用户申请200字节" style="edgeLabel;html=1;align=center;verticalAlign=middle;resizable=0;points=[];rounded=0;strokeColor=default;fontFamily=Helvetica;fontSize=12;fontColor=#FF3333;fillColor=default;" parent="mPyixSlXerw-gBXY45cz-76" vertex="1" connectable="0">
          <mxGeometry x="-0.1537" y="-1" relative="1" as="geometry">
            <mxPoint as="offset" />
          </mxGeometry>
        </mxCell>
        <mxCell id="mPyixSlXerw-gBXY45cz-78" value="0x7ffe3e338000:524" style="rounded=0;whiteSpace=wrap;html=1;strokeColor=#6c8ebf;align=center;verticalAlign=middle;fontFamily=Helvetica;fontSize=12;fillColor=#dae8fc;" parent="1" vertex="1">
          <mxGeometry x="290" y="-2600" width="140" height="20" as="geometry" />
        </mxCell>
        <mxCell id="mPyixSlXerw-gBXY45cz-79" value="500" style="whiteSpace=wrap;html=1;rounded=0;fillColor=#60a917;fontColor=#ffffff;strokeColor=#2D7600;" parent="1" vertex="1">
          <mxGeometry x="290" y="-2580" width="60" height="30" as="geometry" />
        </mxCell>
        <mxCell id="mPyixSlXerw-gBXY45cz-80" value="0x7ffe3e338000:424" style="rounded=0;whiteSpace=wrap;html=1;strokeColor=#6c8ebf;align=center;verticalAlign=middle;fontFamily=Helvetica;fontSize=12;fillColor=#dae8fc;" parent="1" vertex="1">
          <mxGeometry x="490" y="-2600" width="140" height="20" as="geometry" />
        </mxCell>
        <mxCell id="mPyixSlXerw-gBXY45cz-82" value="0x7ffe3e338000:1024" style="rounded=0;whiteSpace=wrap;html=1;strokeColor=#6c8ebf;align=center;verticalAlign=middle;fontFamily=Helvetica;fontSize=12;fillColor=#dae8fc;" parent="1" vertex="1">
          <mxGeometry x="700" y="-2600" width="140" height="20" as="geometry" />
        </mxCell>
        <mxCell id="mPyixSlXerw-gBXY45cz-83" value="" style="whiteSpace=wrap;html=1;rounded=0;" parent="1" vertex="1">
          <mxGeometry x="700" y="-2580" width="140" height="30" as="geometry" />
        </mxCell>
        <mxCell id="mPyixSlXerw-gBXY45cz-84" value="" style="shape=flexArrow;endArrow=classic;html=1;rounded=0;fontFamily=Helvetica;fontSize=12;fontColor=default;" parent="1" edge="1">
          <mxGeometry width="50" height="50" relative="1" as="geometry">
            <mxPoint x="440" y="-2570" as="sourcePoint" />
            <mxPoint x="480" y="-2570" as="targetPoint" />
          </mxGeometry>
        </mxCell>
        <mxCell id="mPyixSlXerw-gBXY45cz-85" value="" style="shape=flexArrow;endArrow=classic;html=1;rounded=0;fontFamily=Helvetica;fontSize=12;fontColor=default;" parent="1" edge="1">
          <mxGeometry width="50" height="50" relative="1" as="geometry">
            <mxPoint x="650" y="-2570" as="sourcePoint" />
            <mxPoint x="690" y="-2570" as="targetPoint" />
          </mxGeometry>
        </mxCell>
        <mxCell id="mPyixSlXerw-gBXY45cz-86" value="524" style="whiteSpace=wrap;html=1;rounded=0;" parent="1" vertex="1">
          <mxGeometry x="380" y="-2580" width="50" height="30" as="geometry" />
        </mxCell>
        <mxCell id="mPyixSlXerw-gBXY45cz-89" value="200" style="whiteSpace=wrap;html=1;rounded=0;fillColor=#60a917;fontColor=#ffffff;strokeColor=#2D7600;" parent="1" vertex="1">
          <mxGeometry x="350" y="-2580" width="30" height="30" as="geometry" />
        </mxCell>
        <mxCell id="mPyixSlXerw-gBXY45cz-90" value="800" style="whiteSpace=wrap;html=1;rounded=0;fillColor=#60a917;fontColor=#ffffff;strokeColor=#2D7600;" parent="1" vertex="1">
          <mxGeometry x="490" y="-2580" width="95" height="30" as="geometry" />
        </mxCell>
        <mxCell id="mPyixSlXerw-gBXY45cz-91" value="424" style="whiteSpace=wrap;html=1;rounded=0;" parent="1" vertex="1">
          <mxGeometry x="585" y="-2580" width="45" height="30" as="geometry" />
        </mxCell>
        <mxCell id="mPyixSlXerw-gBXY45cz-152" value="" style="swimlane;startSize=0;rounded=0;strokeColor=default;align=center;verticalAlign=middle;fontFamily=Helvetica;fontSize=12;fontColor=default;fillColor=default;dashed=1;movable=1;resizable=1;rotatable=1;deletable=1;editable=1;locked=0;connectable=1;" parent="1" vertex="1">
          <mxGeometry x="1080" y="-3172" width="900" height="680" as="geometry" />
        </mxCell>
        <mxCell id="mPyixSlXerw-gBXY45cz-153" value="&lt;font size=&quot;1&quot;&gt;&lt;b&gt;&lt;font style=&quot;font-size: 22px;&quot; color=&quot;#ff3333&quot;&gt;动态内存分配(DMA) 之循环首次适应算法&lt;/font&gt;&lt;/b&gt;&lt;/font&gt;" style="text;html=1;align=center;verticalAlign=middle;resizable=1;points=[];autosize=1;strokeColor=none;fillColor=none;fontFamily=Helvetica;fontSize=12;fontColor=default;movable=1;rotatable=1;deletable=1;editable=1;locked=0;connectable=1;" parent="mPyixSlXerw-gBXY45cz-152" vertex="1">
          <mxGeometry x="100" y="22" width="420" height="40" as="geometry" />
        </mxCell>
        <mxCell id="mPyixSlXerw-gBXY45cz-209" value="724" style="whiteSpace=wrap;html=1;rounded=0;movable=1;resizable=1;rotatable=1;deletable=1;editable=1;locked=0;connectable=1;" parent="mPyixSlXerw-gBXY45cz-152" vertex="1">
          <mxGeometry x="330" y="590" width="80" height="30" as="geometry" />
        </mxCell>
        <mxCell id="mPyixSlXerw-gBXY45cz-210" value="200" style="whiteSpace=wrap;html=1;rounded=0;fillColor=#60a917;fontColor=#ffffff;strokeColor=#2D7600;movable=1;resizable=1;rotatable=1;deletable=1;editable=1;locked=0;connectable=1;" parent="mPyixSlXerw-gBXY45cz-152" vertex="1">
          <mxGeometry x="680" y="590" width="30" height="30" as="geometry" />
        </mxCell>
        <mxCell id="mPyixSlXerw-gBXY45cz-211" value="&lt;b&gt;&lt;font color=&quot;#3333ff&quot;&gt;PB&lt;/font&gt;&lt;/b&gt; " style="rounded=0;whiteSpace=wrap;html=1;strokeColor=#6c8ebf;align=center;verticalAlign=middle;fontFamily=Helvetica;fontSize=12;fillColor=#dae8fc;movable=1;resizable=1;rotatable=1;deletable=1;editable=1;locked=0;connectable=1;" parent="mPyixSlXerw-gBXY45cz-152" vertex="1">
          <mxGeometry x="850" y="570" width="40" height="20" as="geometry" />
        </mxCell>
        <mxCell id="mPyixSlXerw-gBXY45cz-212" value="" style="whiteSpace=wrap;html=1;rounded=0;movable=1;resizable=1;rotatable=1;deletable=1;editable=1;locked=0;connectable=1;" parent="mPyixSlXerw-gBXY45cz-152" vertex="1">
          <mxGeometry x="850" y="590" width="40" height="30" as="geometry" />
        </mxCell>
        <mxCell id="mPyixSlXerw-gBXY45cz-213" value="" style="shape=flexArrow;endArrow=classic;html=1;rounded=0;fontFamily=Helvetica;fontSize=12;fontColor=default;width=8.23529411764706;endSize=2.823529411764706;movable=1;resizable=1;rotatable=1;deletable=1;editable=1;locked=0;connectable=1;" parent="mPyixSlXerw-gBXY45cz-152" edge="1">
          <mxGeometry width="50" height="50" relative="1" as="geometry">
            <mxPoint x="826" y="602" as="sourcePoint" />
            <mxPoint x="846" y="602" as="targetPoint" />
          </mxGeometry>
        </mxCell>
        <mxCell id="mPyixSlXerw-gBXY45cz-214" value="从链表记录的游标游标PB开始向后查找第一个有足够空闲空间的块并记录并移动PB至下一节点" style="shape=callout;whiteSpace=wrap;html=1;perimeter=calloutPerimeter;rounded=0;strokeColor=#666666;align=center;verticalAlign=middle;fontFamily=Helvetica;fontSize=12;fontColor=#333333;fillColor=#f5f5f5;base=14;size=50;position=0.91;position2=0.89;movable=1;resizable=1;rotatable=1;deletable=1;editable=1;locked=0;connectable=1;" parent="mPyixSlXerw-gBXY45cz-152" vertex="1">
          <mxGeometry x="270" y="500" width="580" height="70" as="geometry" />
        </mxCell>
        <mxCell id="mPyixSlXerw-gBXY45cz-192" value="从链表记录的游标游标PB开始向后查找第一个有足够空闲空间的块并记录并移动PB至下一节点" style="shape=callout;whiteSpace=wrap;html=1;perimeter=calloutPerimeter;rounded=0;strokeColor=#666666;align=center;verticalAlign=middle;fontFamily=Helvetica;fontSize=12;fontColor=#333333;fillColor=#f5f5f5;movable=1;resizable=1;rotatable=1;deletable=1;editable=1;locked=0;connectable=1;" parent="mPyixSlXerw-gBXY45cz-152" vertex="1">
          <mxGeometry x="101" y="212" width="521" height="50" as="geometry" />
        </mxCell>
        <mxCell id="mPyixSlXerw-gBXY45cz-180" value="从链表记录的游标游标PB开始向后查找第一个有足够空闲空间的块并记录并移动PB至下一节点" style="shape=callout;whiteSpace=wrap;html=1;perimeter=calloutPerimeter;rounded=0;strokeColor=#666666;align=center;verticalAlign=middle;fontFamily=Helvetica;fontSize=12;fontColor=#333333;fillColor=#f5f5f5;movable=1;resizable=1;rotatable=1;deletable=1;editable=1;locked=0;connectable=1;" parent="mPyixSlXerw-gBXY45cz-152" vertex="1">
          <mxGeometry x="251" y="362" width="549" height="50" as="geometry" />
        </mxCell>
        <mxCell id="N2_QX7AaUiCL6Sj8VyHO-115" value="各个内存块按照首地址值从低到高用链表排列连接,因为内存回收时是要比较前后指针是否是连续的，连续的话就需要合并" style="shape=callout;whiteSpace=wrap;html=1;perimeter=calloutPerimeter;rounded=0;strokeColor=#666666;align=center;verticalAlign=middle;fontFamily=Helvetica;fontSize=12;fontColor=#333333;fillColor=#f5f5f5;position2=0.47;" vertex="1" parent="mPyixSlXerw-gBXY45cz-152">
          <mxGeometry x="520" y="12" width="300" height="98" as="geometry" />
        </mxCell>
        <mxCell id="mPyixSlXerw-gBXY45cz-154" value="" style="shape=flexArrow;endArrow=classic;html=1;rounded=0;fontFamily=Helvetica;fontSize=12;fontColor=default;fillColor=#ffe6cc;strokeColor=#d79b00;movable=1;resizable=1;rotatable=1;deletable=1;editable=1;locked=0;connectable=1;" parent="1" edge="1">
          <mxGeometry width="50" height="50" relative="1" as="geometry">
            <mxPoint x="1129" y="-3092" as="sourcePoint" />
            <mxPoint x="1129" y="-2532" as="targetPoint" />
          </mxGeometry>
        </mxCell>
        <mxCell id="mPyixSlXerw-gBXY45cz-155" value="时序" style="shape=callout;whiteSpace=wrap;html=1;perimeter=calloutPerimeter;rounded=0;align=center;verticalAlign=middle;fontFamily=Helvetica;fontSize=12;fillColor=#f5f5f5;strokeColor=#666666;fontColor=#333333;movable=1;resizable=1;rotatable=1;deletable=1;editable=1;locked=0;connectable=1;" parent="1" vertex="1">
          <mxGeometry x="1099" y="-3142" width="60" height="50" as="geometry" />
        </mxCell>
        <mxCell id="mPyixSlXerw-gBXY45cz-156" value="" style="endArrow=none;dashed=1;html=1;rounded=0;fontFamily=Helvetica;fontSize=12;fontColor=default;movable=1;resizable=1;rotatable=1;deletable=1;editable=1;locked=0;connectable=1;" parent="1" edge="1">
          <mxGeometry width="50" height="50" relative="1" as="geometry">
            <mxPoint x="1139" y="-3042" as="sourcePoint" />
            <mxPoint x="1329" y="-3042" as="targetPoint" />
          </mxGeometry>
        </mxCell>
        <mxCell id="mPyixSlXerw-gBXY45cz-157" value="T0 内存分配前" style="edgeLabel;html=1;align=center;verticalAlign=middle;resizable=1;points=[];rounded=0;strokeColor=default;fontFamily=Helvetica;fontSize=12;fontColor=default;fillColor=default;movable=1;rotatable=1;deletable=1;editable=1;locked=0;connectable=1;" parent="mPyixSlXerw-gBXY45cz-156" vertex="1" connectable="0">
          <mxGeometry x="-0.1537" y="-1" relative="1" as="geometry">
            <mxPoint as="offset" />
          </mxGeometry>
        </mxCell>
        <mxCell id="mPyixSlXerw-gBXY45cz-160" value="" style="endArrow=none;dashed=1;html=1;rounded=0;fontFamily=Helvetica;fontSize=12;fontColor=default;movable=1;resizable=1;rotatable=1;deletable=1;editable=1;locked=0;connectable=1;" parent="1" edge="1">
          <mxGeometry width="50" height="50" relative="1" as="geometry">
            <mxPoint x="1139" y="-2890" as="sourcePoint" />
            <mxPoint x="1329" y="-2890" as="targetPoint" />
            <Array as="points">
              <mxPoint x="1239" y="-2890" />
            </Array>
          </mxGeometry>
        </mxCell>
        <mxCell id="mPyixSlXerw-gBXY45cz-161" value="T1 用户申请500字节" style="edgeLabel;html=1;align=center;verticalAlign=middle;resizable=1;points=[];rounded=0;strokeColor=default;fontFamily=Helvetica;fontSize=12;fontColor=#FF3333;fillColor=default;movable=1;rotatable=1;deletable=1;editable=1;locked=0;connectable=1;" parent="mPyixSlXerw-gBXY45cz-160" vertex="1" connectable="0">
          <mxGeometry x="-0.1537" y="-1" relative="1" as="geometry">
            <mxPoint as="offset" />
          </mxGeometry>
        </mxCell>
        <mxCell id="mPyixSlXerw-gBXY45cz-162" value="&lt;b&gt;&lt;font color=&quot;#3333ff&quot;&gt;PB&lt;/font&gt;&lt;/b&gt; 0x7ffe3e338000:1024" style="rounded=0;whiteSpace=wrap;html=1;strokeColor=#6c8ebf;align=center;verticalAlign=middle;fontFamily=Helvetica;fontSize=12;fillColor=#dae8fc;movable=1;resizable=1;rotatable=1;deletable=1;editable=1;locked=0;connectable=1;" parent="1" vertex="1">
          <mxGeometry x="1339" y="-3060" width="140" height="20" as="geometry" />
        </mxCell>
        <mxCell id="mPyixSlXerw-gBXY45cz-163" value="" style="whiteSpace=wrap;html=1;rounded=0;movable=1;resizable=1;rotatable=1;deletable=1;editable=1;locked=0;connectable=1;" parent="1" vertex="1">
          <mxGeometry x="1339" y="-3040" width="140" height="30" as="geometry" />
        </mxCell>
        <mxCell id="mPyixSlXerw-gBXY45cz-164" value="0x7ffe3e338000:1024" style="rounded=0;whiteSpace=wrap;html=1;strokeColor=#6c8ebf;align=center;verticalAlign=middle;fontFamily=Helvetica;fontSize=12;fillColor=#dae8fc;movable=1;resizable=1;rotatable=1;deletable=1;editable=1;locked=0;connectable=1;" parent="1" vertex="1">
          <mxGeometry x="1539" y="-3060" width="140" height="20" as="geometry" />
        </mxCell>
        <mxCell id="mPyixSlXerw-gBXY45cz-165" value="" style="whiteSpace=wrap;html=1;rounded=0;movable=1;resizable=1;rotatable=1;deletable=1;editable=1;locked=0;connectable=1;" parent="1" vertex="1">
          <mxGeometry x="1539" y="-3040" width="140" height="30" as="geometry" />
        </mxCell>
        <mxCell id="mPyixSlXerw-gBXY45cz-166" value="0x7ffe3e338000:1024" style="rounded=0;whiteSpace=wrap;html=1;strokeColor=#6c8ebf;align=center;verticalAlign=middle;fontFamily=Helvetica;fontSize=12;fillColor=#dae8fc;movable=1;resizable=1;rotatable=1;deletable=1;editable=1;locked=0;connectable=1;" parent="1" vertex="1">
          <mxGeometry x="1749" y="-3060" width="140" height="20" as="geometry" />
        </mxCell>
        <mxCell id="mPyixSlXerw-gBXY45cz-167" value="" style="whiteSpace=wrap;html=1;rounded=0;movable=1;resizable=1;rotatable=1;deletable=1;editable=1;locked=0;connectable=1;" parent="1" vertex="1">
          <mxGeometry x="1749" y="-3040" width="140" height="30" as="geometry" />
        </mxCell>
        <mxCell id="mPyixSlXerw-gBXY45cz-168" value="" style="shape=flexArrow;endArrow=classic;html=1;rounded=0;fontFamily=Helvetica;fontSize=12;fontColor=default;movable=1;resizable=1;rotatable=1;deletable=1;editable=1;locked=0;connectable=1;" parent="1" edge="1">
          <mxGeometry width="50" height="50" relative="1" as="geometry">
            <mxPoint x="1489" y="-3030" as="sourcePoint" />
            <mxPoint x="1529" y="-3030" as="targetPoint" />
          </mxGeometry>
        </mxCell>
        <mxCell id="mPyixSlXerw-gBXY45cz-169" value="" style="shape=flexArrow;endArrow=classic;html=1;rounded=0;fontFamily=Helvetica;fontSize=12;fontColor=default;movable=1;resizable=1;rotatable=1;deletable=1;editable=1;locked=0;connectable=1;" parent="1" edge="1">
          <mxGeometry width="50" height="50" relative="1" as="geometry">
            <mxPoint x="1699" y="-3030" as="sourcePoint" />
            <mxPoint x="1739" y="-3030" as="targetPoint" />
          </mxGeometry>
        </mxCell>
        <mxCell id="mPyixSlXerw-gBXY45cz-170" value="0x7ffe3e338000:724" style="rounded=0;whiteSpace=wrap;html=1;strokeColor=#6c8ebf;align=center;verticalAlign=middle;fontFamily=Helvetica;fontSize=12;fillColor=#dae8fc;movable=1;resizable=1;rotatable=1;deletable=1;editable=1;locked=0;connectable=1;" parent="1" vertex="1">
          <mxGeometry x="1339" y="-2910" width="140" height="20" as="geometry" />
        </mxCell>
        <mxCell id="mPyixSlXerw-gBXY45cz-171" value="500" style="whiteSpace=wrap;html=1;rounded=0;fillColor=#60a917;fontColor=#ffffff;strokeColor=#2D7600;movable=1;resizable=1;rotatable=1;deletable=1;editable=1;locked=0;connectable=1;" parent="1" vertex="1">
          <mxGeometry x="1339" y="-2890" width="60" height="30" as="geometry" />
        </mxCell>
        <mxCell id="mPyixSlXerw-gBXY45cz-172" value="&lt;b&gt;&lt;font color=&quot;#3333ff&quot;&gt;PB&lt;/font&gt;&lt;/b&gt; 0x7ffe3e338000:1024" style="rounded=0;whiteSpace=wrap;html=1;strokeColor=#6c8ebf;align=center;verticalAlign=middle;fontFamily=Helvetica;fontSize=12;fillColor=#dae8fc;movable=1;resizable=1;rotatable=1;deletable=1;editable=1;locked=0;connectable=1;" parent="1" vertex="1">
          <mxGeometry x="1539" y="-2910" width="140" height="20" as="geometry" />
        </mxCell>
        <mxCell id="mPyixSlXerw-gBXY45cz-173" value="" style="whiteSpace=wrap;html=1;rounded=0;movable=1;resizable=1;rotatable=1;deletable=1;editable=1;locked=0;connectable=1;" parent="1" vertex="1">
          <mxGeometry x="1539" y="-2890" width="140" height="30" as="geometry" />
        </mxCell>
        <mxCell id="mPyixSlXerw-gBXY45cz-174" value="0x7ffe3e338000:1024" style="rounded=0;whiteSpace=wrap;html=1;strokeColor=#6c8ebf;align=center;verticalAlign=middle;fontFamily=Helvetica;fontSize=12;fillColor=#dae8fc;movable=1;resizable=1;rotatable=1;deletable=1;editable=1;locked=0;connectable=1;" parent="1" vertex="1">
          <mxGeometry x="1749" y="-2910" width="140" height="20" as="geometry" />
        </mxCell>
        <mxCell id="mPyixSlXerw-gBXY45cz-175" value="" style="whiteSpace=wrap;html=1;rounded=0;movable=1;resizable=1;rotatable=1;deletable=1;editable=1;locked=0;connectable=1;" parent="1" vertex="1">
          <mxGeometry x="1749" y="-2890" width="140" height="30" as="geometry" />
        </mxCell>
        <mxCell id="mPyixSlXerw-gBXY45cz-176" value="" style="shape=flexArrow;endArrow=classic;html=1;rounded=0;fontFamily=Helvetica;fontSize=12;fontColor=default;movable=1;resizable=1;rotatable=1;deletable=1;editable=1;locked=0;connectable=1;" parent="1" edge="1">
          <mxGeometry width="50" height="50" relative="1" as="geometry">
            <mxPoint x="1489" y="-2880" as="sourcePoint" />
            <mxPoint x="1529" y="-2880" as="targetPoint" />
          </mxGeometry>
        </mxCell>
        <mxCell id="mPyixSlXerw-gBXY45cz-177" value="" style="shape=flexArrow;endArrow=classic;html=1;rounded=0;fontFamily=Helvetica;fontSize=12;fontColor=default;movable=1;resizable=1;rotatable=1;deletable=1;editable=1;locked=0;connectable=1;" parent="1" edge="1">
          <mxGeometry width="50" height="50" relative="1" as="geometry">
            <mxPoint x="1699" y="-2880" as="sourcePoint" />
            <mxPoint x="1739" y="-2880" as="targetPoint" />
          </mxGeometry>
        </mxCell>
        <mxCell id="mPyixSlXerw-gBXY45cz-178" value="724" style="whiteSpace=wrap;html=1;rounded=0;movable=1;resizable=1;rotatable=1;deletable=1;editable=1;locked=0;connectable=1;" parent="1" vertex="1">
          <mxGeometry x="1399" y="-2890" width="80" height="30" as="geometry" />
        </mxCell>
        <mxCell id="mPyixSlXerw-gBXY45cz-181" value="T2用户申请800字节" style="edgeLabel;html=1;align=center;verticalAlign=middle;resizable=1;points=[];rounded=0;strokeColor=default;fontFamily=Helvetica;fontSize=12;fontColor=#FF3333;fillColor=default;movable=1;rotatable=1;deletable=1;editable=1;locked=0;connectable=1;" parent="1" vertex="1" connectable="0">
          <mxGeometry x="1214" y="-2736" as="geometry" />
        </mxCell>
        <mxCell id="mPyixSlXerw-gBXY45cz-182" value="0x7ffe3e338000:724" style="rounded=0;whiteSpace=wrap;html=1;strokeColor=#6c8ebf;align=center;verticalAlign=middle;fontFamily=Helvetica;fontSize=12;fillColor=#dae8fc;movable=1;resizable=1;rotatable=1;deletable=1;editable=1;locked=0;connectable=1;" parent="1" vertex="1">
          <mxGeometry x="1334" y="-2757" width="140" height="20" as="geometry" />
        </mxCell>
        <mxCell id="mPyixSlXerw-gBXY45cz-183" value="500" style="whiteSpace=wrap;html=1;rounded=0;fillColor=#60a917;fontColor=#ffffff;strokeColor=#2D7600;movable=1;resizable=1;rotatable=1;deletable=1;editable=1;locked=0;connectable=1;" parent="1" vertex="1">
          <mxGeometry x="1334" y="-2737" width="60" height="30" as="geometry" />
        </mxCell>
        <mxCell id="mPyixSlXerw-gBXY45cz-184" value="0x7ffe3e338000:424" style="rounded=0;whiteSpace=wrap;html=1;strokeColor=#6c8ebf;align=center;verticalAlign=middle;fontFamily=Helvetica;fontSize=12;fillColor=#dae8fc;movable=1;resizable=1;rotatable=1;deletable=1;editable=1;locked=0;connectable=1;" parent="1" vertex="1">
          <mxGeometry x="1534" y="-2757" width="140" height="20" as="geometry" />
        </mxCell>
        <mxCell id="mPyixSlXerw-gBXY45cz-185" value="800" style="whiteSpace=wrap;html=1;rounded=0;fillColor=#60a917;fontColor=#ffffff;strokeColor=#2D7600;movable=1;resizable=1;rotatable=1;deletable=1;editable=1;locked=0;connectable=1;" parent="1" vertex="1">
          <mxGeometry x="1534" y="-2737" width="95" height="30" as="geometry" />
        </mxCell>
        <mxCell id="mPyixSlXerw-gBXY45cz-186" value="&lt;b&gt;&lt;font color=&quot;#3333ff&quot;&gt;PB&lt;/font&gt;&lt;/b&gt; 0x7ffe3e338000:1024" style="rounded=0;whiteSpace=wrap;html=1;strokeColor=#6c8ebf;align=center;verticalAlign=middle;fontFamily=Helvetica;fontSize=12;fillColor=#dae8fc;movable=1;resizable=1;rotatable=1;deletable=1;editable=1;locked=0;connectable=1;" parent="1" vertex="1">
          <mxGeometry x="1744" y="-2757" width="140" height="20" as="geometry" />
        </mxCell>
        <mxCell id="mPyixSlXerw-gBXY45cz-187" value="" style="whiteSpace=wrap;html=1;rounded=0;movable=1;resizable=1;rotatable=1;deletable=1;editable=1;locked=0;connectable=1;" parent="1" vertex="1">
          <mxGeometry x="1744" y="-2737" width="140" height="30" as="geometry" />
        </mxCell>
        <mxCell id="mPyixSlXerw-gBXY45cz-188" value="" style="shape=flexArrow;endArrow=classic;html=1;rounded=0;fontFamily=Helvetica;fontSize=12;fontColor=default;movable=1;resizable=1;rotatable=1;deletable=1;editable=1;locked=0;connectable=1;" parent="1" edge="1">
          <mxGeometry width="50" height="50" relative="1" as="geometry">
            <mxPoint x="1484" y="-2727" as="sourcePoint" />
            <mxPoint x="1524" y="-2727" as="targetPoint" />
          </mxGeometry>
        </mxCell>
        <mxCell id="mPyixSlXerw-gBXY45cz-189" value="" style="shape=flexArrow;endArrow=classic;html=1;rounded=0;fontFamily=Helvetica;fontSize=12;fontColor=default;movable=1;resizable=1;rotatable=1;deletable=1;editable=1;locked=0;connectable=1;" parent="1" edge="1">
          <mxGeometry width="50" height="50" relative="1" as="geometry">
            <mxPoint x="1694" y="-2727" as="sourcePoint" />
            <mxPoint x="1734" y="-2727" as="targetPoint" />
          </mxGeometry>
        </mxCell>
        <mxCell id="mPyixSlXerw-gBXY45cz-190" value="724" style="whiteSpace=wrap;html=1;rounded=0;movable=1;resizable=1;rotatable=1;deletable=1;editable=1;locked=0;connectable=1;" parent="1" vertex="1">
          <mxGeometry x="1394" y="-2737" width="80" height="30" as="geometry" />
        </mxCell>
        <mxCell id="mPyixSlXerw-gBXY45cz-193" value="424" style="whiteSpace=wrap;html=1;rounded=0;movable=1;resizable=1;rotatable=1;deletable=1;editable=1;locked=0;connectable=1;" parent="1" vertex="1">
          <mxGeometry x="1629" y="-2737" width="45" height="30" as="geometry" />
        </mxCell>
        <mxCell id="mPyixSlXerw-gBXY45cz-194" value="" style="endArrow=none;dashed=1;html=1;rounded=0;fontFamily=Helvetica;fontSize=12;fontColor=default;movable=1;resizable=1;rotatable=1;deletable=1;editable=1;locked=0;connectable=1;" parent="1" edge="1">
          <mxGeometry width="50" height="50" relative="1" as="geometry">
            <mxPoint x="1149" y="-2582" as="sourcePoint" />
            <mxPoint x="1339" y="-2582" as="targetPoint" />
            <Array as="points">
              <mxPoint x="1249" y="-2582" />
            </Array>
          </mxGeometry>
        </mxCell>
        <mxCell id="mPyixSlXerw-gBXY45cz-195" value="T3 用户申请200字节" style="edgeLabel;html=1;align=center;verticalAlign=middle;resizable=1;points=[];rounded=0;strokeColor=default;fontFamily=Helvetica;fontSize=12;fontColor=#FF3333;fillColor=default;movable=1;rotatable=1;deletable=1;editable=1;locked=0;connectable=1;" parent="mPyixSlXerw-gBXY45cz-194" vertex="1" connectable="0">
          <mxGeometry x="-0.1537" y="-1" relative="1" as="geometry">
            <mxPoint as="offset" />
          </mxGeometry>
        </mxCell>
        <mxCell id="mPyixSlXerw-gBXY45cz-196" value="0x7ffe3e338000:524" style="rounded=0;whiteSpace=wrap;html=1;strokeColor=#6c8ebf;align=center;verticalAlign=middle;fontFamily=Helvetica;fontSize=12;fillColor=#dae8fc;movable=1;resizable=1;rotatable=1;deletable=1;editable=1;locked=0;connectable=1;" parent="1" vertex="1">
          <mxGeometry x="1349" y="-2602" width="140" height="20" as="geometry" />
        </mxCell>
        <mxCell id="mPyixSlXerw-gBXY45cz-197" value="500" style="whiteSpace=wrap;html=1;rounded=0;fillColor=#60a917;fontColor=#ffffff;strokeColor=#2D7600;movable=1;resizable=1;rotatable=1;deletable=1;editable=1;locked=0;connectable=1;" parent="1" vertex="1">
          <mxGeometry x="1349" y="-2582" width="60" height="30" as="geometry" />
        </mxCell>
        <mxCell id="mPyixSlXerw-gBXY45cz-198" value="0x7ffe3e338000:424" style="rounded=0;whiteSpace=wrap;html=1;strokeColor=#6c8ebf;align=center;verticalAlign=middle;fontFamily=Helvetica;fontSize=12;fillColor=#dae8fc;movable=1;resizable=1;rotatable=1;deletable=1;editable=1;locked=0;connectable=1;" parent="1" vertex="1">
          <mxGeometry x="1549" y="-2602" width="140" height="20" as="geometry" />
        </mxCell>
        <mxCell id="mPyixSlXerw-gBXY45cz-199" value="0x7ffe3e338000:824" style="rounded=0;whiteSpace=wrap;html=1;strokeColor=#6c8ebf;align=center;verticalAlign=middle;fontFamily=Helvetica;fontSize=12;fillColor=#dae8fc;movable=1;resizable=1;rotatable=1;deletable=1;editable=1;locked=0;connectable=1;" parent="1" vertex="1">
          <mxGeometry x="1759" y="-2602" width="140" height="20" as="geometry" />
        </mxCell>
        <mxCell id="mPyixSlXerw-gBXY45cz-200" value="" style="whiteSpace=wrap;html=1;rounded=0;movable=1;resizable=1;rotatable=1;deletable=1;editable=1;locked=0;connectable=1;" parent="1" vertex="1">
          <mxGeometry x="1790" y="-2582" width="109" height="30" as="geometry" />
        </mxCell>
        <mxCell id="mPyixSlXerw-gBXY45cz-201" value="" style="shape=flexArrow;endArrow=classic;html=1;rounded=0;fontFamily=Helvetica;fontSize=12;fontColor=default;movable=1;resizable=1;rotatable=1;deletable=1;editable=1;locked=0;connectable=1;" parent="1" edge="1">
          <mxGeometry width="50" height="50" relative="1" as="geometry">
            <mxPoint x="1499" y="-2572" as="sourcePoint" />
            <mxPoint x="1539" y="-2572" as="targetPoint" />
          </mxGeometry>
        </mxCell>
        <mxCell id="mPyixSlXerw-gBXY45cz-202" value="" style="shape=flexArrow;endArrow=classic;html=1;rounded=0;fontFamily=Helvetica;fontSize=12;fontColor=default;movable=1;resizable=1;rotatable=1;deletable=1;editable=1;locked=0;connectable=1;" parent="1" edge="1">
          <mxGeometry width="50" height="50" relative="1" as="geometry">
            <mxPoint x="1709" y="-2572" as="sourcePoint" />
            <mxPoint x="1749" y="-2572" as="targetPoint" />
          </mxGeometry>
        </mxCell>
        <mxCell id="mPyixSlXerw-gBXY45cz-207" value="800" style="whiteSpace=wrap;html=1;rounded=0;fillColor=#60a917;fontColor=#ffffff;strokeColor=#2D7600;movable=1;resizable=1;rotatable=1;deletable=1;editable=1;locked=0;connectable=1;" parent="1" vertex="1">
          <mxGeometry x="1549" y="-2582" width="95" height="30" as="geometry" />
        </mxCell>
        <mxCell id="mPyixSlXerw-gBXY45cz-208" value="424" style="whiteSpace=wrap;html=1;rounded=0;movable=1;resizable=1;rotatable=1;deletable=1;editable=1;locked=0;connectable=1;" parent="1" vertex="1">
          <mxGeometry x="1644" y="-2582" width="45" height="30" as="geometry" />
        </mxCell>
        <mxCell id="N2_QX7AaUiCL6Sj8VyHO-58" value="" style="swimlane;startSize=0;rounded=0;strokeColor=default;align=center;verticalAlign=middle;fontFamily=Helvetica;fontSize=12;fontColor=default;fillColor=default;dashed=1;movable=1;resizable=1;rotatable=1;deletable=1;editable=1;locked=0;connectable=1;" vertex="1" parent="1">
          <mxGeometry x="2114" y="-3172" width="900" height="680" as="geometry" />
        </mxCell>
        <mxCell id="N2_QX7AaUiCL6Sj8VyHO-59" value="&lt;font size=&quot;1&quot;&gt;&lt;b&gt;&lt;font style=&quot;font-size: 22px;&quot; color=&quot;#ff3333&quot;&gt;动态内存分配(DMA) 之最佳适应算法&lt;/font&gt;&lt;/b&gt;&lt;/font&gt;" style="text;html=1;align=center;verticalAlign=middle;resizable=1;points=[];autosize=1;strokeColor=none;fillColor=none;fontFamily=Helvetica;fontSize=12;fontColor=default;movable=1;rotatable=1;deletable=1;editable=1;locked=0;connectable=1;" vertex="1" parent="N2_QX7AaUiCL6Sj8VyHO-58">
          <mxGeometry x="120" y="22" width="380" height="40" as="geometry" />
        </mxCell>
        <mxCell id="N2_QX7AaUiCL6Sj8VyHO-66" value="从链表头开始向后查找第一个有足够空闲空间的块" style="shape=callout;whiteSpace=wrap;html=1;perimeter=calloutPerimeter;rounded=0;strokeColor=#666666;align=center;verticalAlign=middle;fontFamily=Helvetica;fontSize=12;fontColor=#333333;fillColor=#f5f5f5;movable=1;resizable=1;rotatable=1;deletable=1;editable=1;locked=0;connectable=1;" vertex="1" parent="N2_QX7AaUiCL6Sj8VyHO-58">
          <mxGeometry x="159" y="212" width="279" height="50" as="geometry" />
        </mxCell>
        <mxCell id="N2_QX7AaUiCL6Sj8VyHO-67" value="从链表头开始向后查找第一个有足够空闲空间的块,因为它比第一个块可用空间还少需要移动它在链表中的位置" style="shape=callout;whiteSpace=wrap;html=1;perimeter=calloutPerimeter;rounded=0;strokeColor=#666666;align=center;verticalAlign=middle;fontFamily=Helvetica;fontSize=12;fontColor=#333333;fillColor=#f5f5f5;movable=1;resizable=1;rotatable=1;deletable=1;editable=1;locked=0;connectable=1;" vertex="1" parent="N2_QX7AaUiCL6Sj8VyHO-58">
          <mxGeometry x="315.5" y="330" width="349" height="82" as="geometry" />
        </mxCell>
        <mxCell id="N2_QX7AaUiCL6Sj8VyHO-68" value="各个内存块按照可用空间大小从低到高用链表排列连接" style="shape=callout;whiteSpace=wrap;html=1;perimeter=calloutPerimeter;rounded=0;strokeColor=#666666;align=center;verticalAlign=middle;fontFamily=Helvetica;fontSize=12;fontColor=#333333;fillColor=#f5f5f5;movable=1;resizable=1;rotatable=1;deletable=1;editable=1;locked=0;connectable=1;" vertex="1" parent="N2_QX7AaUiCL6Sj8VyHO-58">
          <mxGeometry x="495" y="12" width="365" height="88" as="geometry" />
        </mxCell>
        <mxCell id="N2_QX7AaUiCL6Sj8VyHO-132" value="0x7ffe3e338000:724" style="rounded=0;whiteSpace=wrap;html=1;strokeColor=#6c8ebf;align=center;verticalAlign=middle;fontFamily=Helvetica;fontSize=12;fillColor=#dae8fc;movable=1;resizable=1;rotatable=1;deletable=1;editable=1;locked=0;connectable=1;" vertex="1" parent="N2_QX7AaUiCL6Sj8VyHO-58">
          <mxGeometry x="451" y="482" width="140" height="20" as="geometry" />
        </mxCell>
        <mxCell id="N2_QX7AaUiCL6Sj8VyHO-133" value="500" style="whiteSpace=wrap;html=1;rounded=0;fillColor=#60a917;fontColor=#ffffff;strokeColor=#2D7600;movable=1;resizable=1;rotatable=1;deletable=1;editable=1;locked=0;connectable=1;" vertex="1" parent="N2_QX7AaUiCL6Sj8VyHO-58">
          <mxGeometry x="451" y="502" width="60" height="30" as="geometry" />
        </mxCell>
        <mxCell id="N2_QX7AaUiCL6Sj8VyHO-134" value="0x7ffe3e338000:424" style="rounded=0;whiteSpace=wrap;html=1;strokeColor=#6c8ebf;align=center;verticalAlign=middle;fontFamily=Helvetica;fontSize=12;fillColor=#dae8fc;movable=1;resizable=1;rotatable=1;deletable=1;editable=1;locked=0;connectable=1;" vertex="1" parent="N2_QX7AaUiCL6Sj8VyHO-58">
          <mxGeometry x="251" y="482" width="140" height="20" as="geometry" />
        </mxCell>
        <mxCell id="N2_QX7AaUiCL6Sj8VyHO-135" value="800" style="whiteSpace=wrap;html=1;rounded=0;fillColor=#60a917;fontColor=#ffffff;strokeColor=#2D7600;movable=1;resizable=1;rotatable=1;deletable=1;editable=1;locked=0;connectable=1;" vertex="1" parent="N2_QX7AaUiCL6Sj8VyHO-58">
          <mxGeometry x="251" y="502" width="95" height="30" as="geometry" />
        </mxCell>
        <mxCell id="N2_QX7AaUiCL6Sj8VyHO-136" value="0x7ffe3e338000:1024" style="rounded=0;whiteSpace=wrap;html=1;strokeColor=#6c8ebf;align=center;verticalAlign=middle;fontFamily=Helvetica;fontSize=12;fillColor=#dae8fc;movable=1;resizable=1;rotatable=1;deletable=1;editable=1;locked=0;connectable=1;" vertex="1" parent="N2_QX7AaUiCL6Sj8VyHO-58">
          <mxGeometry x="661" y="482" width="140" height="20" as="geometry" />
        </mxCell>
        <mxCell id="N2_QX7AaUiCL6Sj8VyHO-137" value="" style="whiteSpace=wrap;html=1;rounded=0;movable=1;resizable=1;rotatable=1;deletable=1;editable=1;locked=0;connectable=1;" vertex="1" parent="N2_QX7AaUiCL6Sj8VyHO-58">
          <mxGeometry x="661" y="502" width="140" height="30" as="geometry" />
        </mxCell>
        <mxCell id="N2_QX7AaUiCL6Sj8VyHO-138" value="" style="shape=flexArrow;endArrow=classic;html=1;rounded=0;fontFamily=Helvetica;fontSize=12;fontColor=default;movable=1;resizable=1;rotatable=1;deletable=1;editable=1;locked=0;connectable=1;" edge="1" parent="N2_QX7AaUiCL6Sj8VyHO-58">
          <mxGeometry width="50" height="50" relative="1" as="geometry">
            <mxPoint x="401" y="512" as="sourcePoint" />
            <mxPoint x="441" y="512" as="targetPoint" />
          </mxGeometry>
        </mxCell>
        <mxCell id="N2_QX7AaUiCL6Sj8VyHO-139" value="" style="shape=flexArrow;endArrow=classic;html=1;rounded=0;fontFamily=Helvetica;fontSize=12;fontColor=default;movable=1;resizable=1;rotatable=1;deletable=1;editable=1;locked=0;connectable=1;" edge="1" parent="N2_QX7AaUiCL6Sj8VyHO-58">
          <mxGeometry width="50" height="50" relative="1" as="geometry">
            <mxPoint x="611" y="512" as="sourcePoint" />
            <mxPoint x="651" y="512" as="targetPoint" />
          </mxGeometry>
        </mxCell>
        <mxCell id="N2_QX7AaUiCL6Sj8VyHO-140" value="724" style="whiteSpace=wrap;html=1;rounded=0;movable=1;resizable=1;rotatable=1;deletable=1;editable=1;locked=0;connectable=1;" vertex="1" parent="N2_QX7AaUiCL6Sj8VyHO-58">
          <mxGeometry x="511" y="502" width="80" height="30" as="geometry" />
        </mxCell>
        <mxCell id="N2_QX7AaUiCL6Sj8VyHO-141" value="424" style="whiteSpace=wrap;html=1;rounded=0;movable=1;resizable=1;rotatable=1;deletable=1;editable=1;locked=0;connectable=1;" vertex="1" parent="N2_QX7AaUiCL6Sj8VyHO-58">
          <mxGeometry x="346" y="502" width="45" height="30" as="geometry" />
        </mxCell>
        <mxCell id="N2_QX7AaUiCL6Sj8VyHO-118" value="从链表头开始向后查找第一个有足够空闲空间的块" style="shape=callout;whiteSpace=wrap;html=1;perimeter=calloutPerimeter;rounded=0;strokeColor=#666666;align=center;verticalAlign=middle;fontFamily=Helvetica;fontSize=12;fontColor=#333333;fillColor=#f5f5f5;base=14;size=20;position=0.17;position2=0.14;movable=1;resizable=1;rotatable=1;deletable=1;editable=1;locked=0;connectable=1;" vertex="1" parent="N2_QX7AaUiCL6Sj8VyHO-58">
          <mxGeometry x="250" y="542" width="200" height="50" as="geometry" />
        </mxCell>
        <mxCell id="N2_QX7AaUiCL6Sj8VyHO-121" value="" style="whiteSpace=wrap;html=1;rounded=0;movable=1;resizable=1;rotatable=1;deletable=1;editable=1;locked=0;connectable=1;" vertex="1" parent="N2_QX7AaUiCL6Sj8VyHO-58">
          <mxGeometry x="662" y="612" width="144" height="30" as="geometry" />
        </mxCell>
        <mxCell id="N2_QX7AaUiCL6Sj8VyHO-122" value="" style="endArrow=none;dashed=1;html=1;rounded=0;fontFamily=Helvetica;fontSize=12;fontColor=default;movable=1;resizable=1;rotatable=1;deletable=1;editable=1;locked=0;connectable=1;" edge="1" parent="N2_QX7AaUiCL6Sj8VyHO-58">
          <mxGeometry width="50" height="50" relative="1" as="geometry">
            <mxPoint x="56" y="612" as="sourcePoint" />
            <mxPoint x="246" y="612" as="targetPoint" />
            <Array as="points">
              <mxPoint x="156" y="612" />
            </Array>
          </mxGeometry>
        </mxCell>
        <mxCell id="N2_QX7AaUiCL6Sj8VyHO-123" value="T3 用户申请200字节" style="edgeLabel;html=1;align=center;verticalAlign=middle;resizable=1;points=[];rounded=0;strokeColor=default;fontFamily=Helvetica;fontSize=12;fontColor=#FF3333;fillColor=default;movable=1;rotatable=1;deletable=1;editable=1;locked=0;connectable=1;" vertex="1" connectable="0" parent="N2_QX7AaUiCL6Sj8VyHO-122">
          <mxGeometry x="-0.1537" y="-1" relative="1" as="geometry">
            <mxPoint as="offset" />
          </mxGeometry>
        </mxCell>
        <mxCell id="N2_QX7AaUiCL6Sj8VyHO-126" value="0x7ffe3e338000:424" style="rounded=0;whiteSpace=wrap;html=1;strokeColor=#6c8ebf;align=center;verticalAlign=middle;fontFamily=Helvetica;fontSize=12;fillColor=#dae8fc;movable=1;resizable=1;rotatable=1;deletable=1;editable=1;locked=0;connectable=1;" vertex="1" parent="N2_QX7AaUiCL6Sj8VyHO-58">
          <mxGeometry x="256" y="592" width="140" height="20" as="geometry" />
        </mxCell>
        <mxCell id="N2_QX7AaUiCL6Sj8VyHO-127" value="0x7ffe3e338000:824" style="rounded=0;whiteSpace=wrap;html=1;strokeColor=#6c8ebf;align=center;verticalAlign=middle;fontFamily=Helvetica;fontSize=12;fillColor=#dae8fc;movable=1;resizable=1;rotatable=1;deletable=1;editable=1;locked=0;connectable=1;" vertex="1" parent="N2_QX7AaUiCL6Sj8VyHO-58">
          <mxGeometry x="662" y="592" width="144" height="20" as="geometry" />
        </mxCell>
        <mxCell id="N2_QX7AaUiCL6Sj8VyHO-128" value="" style="shape=flexArrow;endArrow=classic;html=1;rounded=0;fontFamily=Helvetica;fontSize=12;fontColor=default;movable=1;resizable=1;rotatable=1;deletable=1;editable=1;locked=0;connectable=1;" edge="1" parent="N2_QX7AaUiCL6Sj8VyHO-58">
          <mxGeometry width="50" height="50" relative="1" as="geometry">
            <mxPoint x="406" y="622" as="sourcePoint" />
            <mxPoint x="446" y="622" as="targetPoint" />
          </mxGeometry>
        </mxCell>
        <mxCell id="N2_QX7AaUiCL6Sj8VyHO-129" value="" style="shape=flexArrow;endArrow=classic;html=1;rounded=0;fontFamily=Helvetica;fontSize=12;fontColor=default;movable=1;resizable=1;rotatable=1;deletable=1;editable=1;locked=0;connectable=1;" edge="1" parent="N2_QX7AaUiCL6Sj8VyHO-58">
          <mxGeometry width="50" height="50" relative="1" as="geometry">
            <mxPoint x="616" y="622" as="sourcePoint" />
            <mxPoint x="656" y="622" as="targetPoint" />
          </mxGeometry>
        </mxCell>
        <mxCell id="N2_QX7AaUiCL6Sj8VyHO-130" value="800" style="whiteSpace=wrap;html=1;rounded=0;fillColor=#60a917;fontColor=#ffffff;strokeColor=#2D7600;movable=1;resizable=1;rotatable=1;deletable=1;editable=1;locked=0;connectable=1;" vertex="1" parent="N2_QX7AaUiCL6Sj8VyHO-58">
          <mxGeometry x="256" y="612" width="90" height="30" as="geometry" />
        </mxCell>
        <mxCell id="N2_QX7AaUiCL6Sj8VyHO-131" value="224" style="whiteSpace=wrap;html=1;rounded=0;movable=1;resizable=1;rotatable=1;deletable=1;editable=1;locked=0;connectable=1;" vertex="1" parent="N2_QX7AaUiCL6Sj8VyHO-58">
          <mxGeometry x="375" y="612" width="21" height="30" as="geometry" />
        </mxCell>
        <mxCell id="N2_QX7AaUiCL6Sj8VyHO-142" value="200" style="whiteSpace=wrap;html=1;rounded=0;fillColor=#60a917;fontColor=#ffffff;strokeColor=#2D7600;movable=1;resizable=1;rotatable=1;deletable=1;editable=1;locked=0;connectable=1;" vertex="1" parent="N2_QX7AaUiCL6Sj8VyHO-58">
          <mxGeometry x="346" y="612" width="30" height="30" as="geometry" />
        </mxCell>
        <mxCell id="N2_QX7AaUiCL6Sj8VyHO-143" value="0x7ffe3e338000:724" style="rounded=0;whiteSpace=wrap;html=1;strokeColor=#6c8ebf;align=center;verticalAlign=middle;fontFamily=Helvetica;fontSize=12;fillColor=#dae8fc;movable=1;resizable=1;rotatable=1;deletable=1;editable=1;locked=0;connectable=1;" vertex="1" parent="N2_QX7AaUiCL6Sj8VyHO-58">
          <mxGeometry x="460" y="592" width="140" height="20" as="geometry" />
        </mxCell>
        <mxCell id="N2_QX7AaUiCL6Sj8VyHO-144" value="500" style="whiteSpace=wrap;html=1;rounded=0;fillColor=#60a917;fontColor=#ffffff;strokeColor=#2D7600;movable=1;resizable=1;rotatable=1;deletable=1;editable=1;locked=0;connectable=1;" vertex="1" parent="N2_QX7AaUiCL6Sj8VyHO-58">
          <mxGeometry x="460" y="612" width="60" height="30" as="geometry" />
        </mxCell>
        <mxCell id="N2_QX7AaUiCL6Sj8VyHO-145" value="724" style="whiteSpace=wrap;html=1;rounded=0;movable=1;resizable=1;rotatable=1;deletable=1;editable=1;locked=0;connectable=1;" vertex="1" parent="N2_QX7AaUiCL6Sj8VyHO-58">
          <mxGeometry x="520" y="612" width="80" height="30" as="geometry" />
        </mxCell>
        <mxCell id="N2_QX7AaUiCL6Sj8VyHO-69" value="" style="shape=flexArrow;endArrow=classic;html=1;rounded=0;fontFamily=Helvetica;fontSize=12;fontColor=default;fillColor=#ffe6cc;strokeColor=#d79b00;movable=1;resizable=1;rotatable=1;deletable=1;editable=1;locked=0;connectable=1;" edge="1" parent="1">
          <mxGeometry width="50" height="50" relative="1" as="geometry">
            <mxPoint x="2164" y="-3092" as="sourcePoint" />
            <mxPoint x="2164" y="-2532" as="targetPoint" />
          </mxGeometry>
        </mxCell>
        <mxCell id="N2_QX7AaUiCL6Sj8VyHO-70" value="时序" style="shape=callout;whiteSpace=wrap;html=1;perimeter=calloutPerimeter;rounded=0;align=center;verticalAlign=middle;fontFamily=Helvetica;fontSize=12;fillColor=#f5f5f5;strokeColor=#666666;fontColor=#333333;movable=1;resizable=1;rotatable=1;deletable=1;editable=1;locked=0;connectable=1;" vertex="1" parent="1">
          <mxGeometry x="2134" y="-3142" width="60" height="50" as="geometry" />
        </mxCell>
        <mxCell id="N2_QX7AaUiCL6Sj8VyHO-71" value="" style="endArrow=none;dashed=1;html=1;rounded=0;fontFamily=Helvetica;fontSize=12;fontColor=default;movable=1;resizable=1;rotatable=1;deletable=1;editable=1;locked=0;connectable=1;" edge="1" parent="1">
          <mxGeometry width="50" height="50" relative="1" as="geometry">
            <mxPoint x="2174" y="-3042" as="sourcePoint" />
            <mxPoint x="2364" y="-3042" as="targetPoint" />
          </mxGeometry>
        </mxCell>
        <mxCell id="N2_QX7AaUiCL6Sj8VyHO-72" value="T0 内存分配前" style="edgeLabel;html=1;align=center;verticalAlign=middle;resizable=1;points=[];rounded=0;strokeColor=default;fontFamily=Helvetica;fontSize=12;fontColor=default;fillColor=default;movable=1;rotatable=1;deletable=1;editable=1;locked=0;connectable=1;" vertex="1" connectable="0" parent="N2_QX7AaUiCL6Sj8VyHO-71">
          <mxGeometry x="-0.1537" y="-1" relative="1" as="geometry">
            <mxPoint as="offset" />
          </mxGeometry>
        </mxCell>
        <mxCell id="N2_QX7AaUiCL6Sj8VyHO-73" value="" style="endArrow=none;dashed=1;html=1;rounded=0;fontFamily=Helvetica;fontSize=12;fontColor=default;movable=1;resizable=1;rotatable=1;deletable=1;editable=1;locked=0;connectable=1;" edge="1" parent="1">
          <mxGeometry width="50" height="50" relative="1" as="geometry">
            <mxPoint x="2174" y="-2890" as="sourcePoint" />
            <mxPoint x="2364" y="-2890" as="targetPoint" />
            <Array as="points">
              <mxPoint x="2274" y="-2890" />
            </Array>
          </mxGeometry>
        </mxCell>
        <mxCell id="N2_QX7AaUiCL6Sj8VyHO-74" value="T1 用户申请500字节" style="edgeLabel;html=1;align=center;verticalAlign=middle;resizable=1;points=[];rounded=0;strokeColor=default;fontFamily=Helvetica;fontSize=12;fontColor=#FF3333;fillColor=default;movable=1;rotatable=1;deletable=1;editable=1;locked=0;connectable=1;" vertex="1" connectable="0" parent="N2_QX7AaUiCL6Sj8VyHO-73">
          <mxGeometry x="-0.1537" y="-1" relative="1" as="geometry">
            <mxPoint as="offset" />
          </mxGeometry>
        </mxCell>
        <mxCell id="N2_QX7AaUiCL6Sj8VyHO-75" value="0x7ffe3e338000:1024" style="rounded=0;whiteSpace=wrap;html=1;strokeColor=#6c8ebf;align=center;verticalAlign=middle;fontFamily=Helvetica;fontSize=12;fillColor=#dae8fc;movable=1;resizable=1;rotatable=1;deletable=1;editable=1;locked=0;connectable=1;" vertex="1" parent="1">
          <mxGeometry x="2374" y="-3060" width="140" height="20" as="geometry" />
        </mxCell>
        <mxCell id="N2_QX7AaUiCL6Sj8VyHO-76" value="" style="whiteSpace=wrap;html=1;rounded=0;movable=1;resizable=1;rotatable=1;deletable=1;editable=1;locked=0;connectable=1;" vertex="1" parent="1">
          <mxGeometry x="2374" y="-3040" width="140" height="30" as="geometry" />
        </mxCell>
        <mxCell id="N2_QX7AaUiCL6Sj8VyHO-77" value="0x7ffe3e338000:1024" style="rounded=0;whiteSpace=wrap;html=1;strokeColor=#6c8ebf;align=center;verticalAlign=middle;fontFamily=Helvetica;fontSize=12;fillColor=#dae8fc;movable=1;resizable=1;rotatable=1;deletable=1;editable=1;locked=0;connectable=1;" vertex="1" parent="1">
          <mxGeometry x="2574" y="-3060" width="140" height="20" as="geometry" />
        </mxCell>
        <mxCell id="N2_QX7AaUiCL6Sj8VyHO-78" value="" style="whiteSpace=wrap;html=1;rounded=0;movable=1;resizable=1;rotatable=1;deletable=1;editable=1;locked=0;connectable=1;" vertex="1" parent="1">
          <mxGeometry x="2574" y="-3040" width="140" height="30" as="geometry" />
        </mxCell>
        <mxCell id="N2_QX7AaUiCL6Sj8VyHO-79" value="0x7ffe3e338000:1024" style="rounded=0;whiteSpace=wrap;html=1;strokeColor=#6c8ebf;align=center;verticalAlign=middle;fontFamily=Helvetica;fontSize=12;fillColor=#dae8fc;movable=1;resizable=1;rotatable=1;deletable=1;editable=1;locked=0;connectable=1;" vertex="1" parent="1">
          <mxGeometry x="2784" y="-3060" width="140" height="20" as="geometry" />
        </mxCell>
        <mxCell id="N2_QX7AaUiCL6Sj8VyHO-80" value="" style="whiteSpace=wrap;html=1;rounded=0;movable=1;resizable=1;rotatable=1;deletable=1;editable=1;locked=0;connectable=1;" vertex="1" parent="1">
          <mxGeometry x="2784" y="-3040" width="140" height="30" as="geometry" />
        </mxCell>
        <mxCell id="N2_QX7AaUiCL6Sj8VyHO-81" value="" style="shape=flexArrow;endArrow=classic;html=1;rounded=0;fontFamily=Helvetica;fontSize=12;fontColor=default;movable=1;resizable=1;rotatable=1;deletable=1;editable=1;locked=0;connectable=1;" edge="1" parent="1">
          <mxGeometry width="50" height="50" relative="1" as="geometry">
            <mxPoint x="2524" y="-3030" as="sourcePoint" />
            <mxPoint x="2564" y="-3030" as="targetPoint" />
          </mxGeometry>
        </mxCell>
        <mxCell id="N2_QX7AaUiCL6Sj8VyHO-82" value="" style="shape=flexArrow;endArrow=classic;html=1;rounded=0;fontFamily=Helvetica;fontSize=12;fontColor=default;movable=1;resizable=1;rotatable=1;deletable=1;editable=1;locked=0;connectable=1;" edge="1" parent="1">
          <mxGeometry width="50" height="50" relative="1" as="geometry">
            <mxPoint x="2734" y="-3030" as="sourcePoint" />
            <mxPoint x="2774" y="-3030" as="targetPoint" />
          </mxGeometry>
        </mxCell>
        <mxCell id="N2_QX7AaUiCL6Sj8VyHO-83" value="0x7ffe3e338000:724" style="rounded=0;whiteSpace=wrap;html=1;strokeColor=#6c8ebf;align=center;verticalAlign=middle;fontFamily=Helvetica;fontSize=12;fillColor=#dae8fc;movable=1;resizable=1;rotatable=1;deletable=1;editable=1;locked=0;connectable=1;" vertex="1" parent="1">
          <mxGeometry x="2374" y="-2910" width="140" height="20" as="geometry" />
        </mxCell>
        <mxCell id="N2_QX7AaUiCL6Sj8VyHO-84" value="500" style="whiteSpace=wrap;html=1;rounded=0;fillColor=#60a917;fontColor=#ffffff;strokeColor=#2D7600;movable=1;resizable=1;rotatable=1;deletable=1;editable=1;locked=0;connectable=1;" vertex="1" parent="1">
          <mxGeometry x="2374" y="-2890" width="60" height="30" as="geometry" />
        </mxCell>
        <mxCell id="N2_QX7AaUiCL6Sj8VyHO-85" value="0x7ffe3e338000:1024" style="rounded=0;whiteSpace=wrap;html=1;strokeColor=#6c8ebf;align=center;verticalAlign=middle;fontFamily=Helvetica;fontSize=12;fillColor=#dae8fc;movable=1;resizable=1;rotatable=1;deletable=1;editable=1;locked=0;connectable=1;" vertex="1" parent="1">
          <mxGeometry x="2574" y="-2910" width="140" height="20" as="geometry" />
        </mxCell>
        <mxCell id="N2_QX7AaUiCL6Sj8VyHO-86" value="" style="whiteSpace=wrap;html=1;rounded=0;movable=1;resizable=1;rotatable=1;deletable=1;editable=1;locked=0;connectable=1;" vertex="1" parent="1">
          <mxGeometry x="2574" y="-2890" width="140" height="30" as="geometry" />
        </mxCell>
        <mxCell id="N2_QX7AaUiCL6Sj8VyHO-87" value="0x7ffe3e338000:1024" style="rounded=0;whiteSpace=wrap;html=1;strokeColor=#6c8ebf;align=center;verticalAlign=middle;fontFamily=Helvetica;fontSize=12;fillColor=#dae8fc;movable=1;resizable=1;rotatable=1;deletable=1;editable=1;locked=0;connectable=1;" vertex="1" parent="1">
          <mxGeometry x="2784" y="-2910" width="140" height="20" as="geometry" />
        </mxCell>
        <mxCell id="N2_QX7AaUiCL6Sj8VyHO-88" value="" style="whiteSpace=wrap;html=1;rounded=0;movable=1;resizable=1;rotatable=1;deletable=1;editable=1;locked=0;connectable=1;" vertex="1" parent="1">
          <mxGeometry x="2784" y="-2890" width="140" height="30" as="geometry" />
        </mxCell>
        <mxCell id="N2_QX7AaUiCL6Sj8VyHO-89" value="" style="shape=flexArrow;endArrow=classic;html=1;rounded=0;fontFamily=Helvetica;fontSize=12;fontColor=default;movable=1;resizable=1;rotatable=1;deletable=1;editable=1;locked=0;connectable=1;" edge="1" parent="1">
          <mxGeometry width="50" height="50" relative="1" as="geometry">
            <mxPoint x="2524" y="-2880" as="sourcePoint" />
            <mxPoint x="2564" y="-2880" as="targetPoint" />
          </mxGeometry>
        </mxCell>
        <mxCell id="N2_QX7AaUiCL6Sj8VyHO-90" value="" style="shape=flexArrow;endArrow=classic;html=1;rounded=0;fontFamily=Helvetica;fontSize=12;fontColor=default;movable=1;resizable=1;rotatable=1;deletable=1;editable=1;locked=0;connectable=1;" edge="1" parent="1">
          <mxGeometry width="50" height="50" relative="1" as="geometry">
            <mxPoint x="2734" y="-2880" as="sourcePoint" />
            <mxPoint x="2774" y="-2880" as="targetPoint" />
          </mxGeometry>
        </mxCell>
        <mxCell id="N2_QX7AaUiCL6Sj8VyHO-91" value="724" style="whiteSpace=wrap;html=1;rounded=0;movable=1;resizable=1;rotatable=1;deletable=1;editable=1;locked=0;connectable=1;" vertex="1" parent="1">
          <mxGeometry x="2434" y="-2890" width="80" height="30" as="geometry" />
        </mxCell>
        <mxCell id="N2_QX7AaUiCL6Sj8VyHO-92" value="T2用户申请800字节" style="edgeLabel;html=1;align=center;verticalAlign=middle;resizable=1;points=[];rounded=0;strokeColor=default;fontFamily=Helvetica;fontSize=12;fontColor=#FF3333;fillColor=default;movable=1;rotatable=1;deletable=1;editable=1;locked=0;connectable=1;" vertex="1" connectable="0" parent="1">
          <mxGeometry x="2249" y="-2736" as="geometry" />
        </mxCell>
        <mxCell id="N2_QX7AaUiCL6Sj8VyHO-93" value="0x7ffe3e338000:724" style="rounded=0;whiteSpace=wrap;html=1;strokeColor=#6c8ebf;align=center;verticalAlign=middle;fontFamily=Helvetica;fontSize=12;fillColor=#dae8fc;movable=1;resizable=1;rotatable=1;deletable=1;editable=1;locked=0;connectable=1;" vertex="1" parent="1">
          <mxGeometry x="2369" y="-2757" width="140" height="20" as="geometry" />
        </mxCell>
        <mxCell id="N2_QX7AaUiCL6Sj8VyHO-94" value="500" style="whiteSpace=wrap;html=1;rounded=0;fillColor=#60a917;fontColor=#ffffff;strokeColor=#2D7600;movable=1;resizable=1;rotatable=1;deletable=1;editable=1;locked=0;connectable=1;" vertex="1" parent="1">
          <mxGeometry x="2369" y="-2737" width="60" height="30" as="geometry" />
        </mxCell>
        <mxCell id="N2_QX7AaUiCL6Sj8VyHO-95" value="0x7ffe3e338000:424" style="rounded=0;whiteSpace=wrap;html=1;strokeColor=#6c8ebf;align=center;verticalAlign=middle;fontFamily=Helvetica;fontSize=12;fillColor=#dae8fc;movable=1;resizable=1;rotatable=1;deletable=1;editable=1;locked=0;connectable=1;" vertex="1" parent="1">
          <mxGeometry x="2569" y="-2757" width="140" height="20" as="geometry" />
        </mxCell>
        <mxCell id="N2_QX7AaUiCL6Sj8VyHO-96" value="800" style="whiteSpace=wrap;html=1;rounded=0;fillColor=#60a917;fontColor=#ffffff;strokeColor=#2D7600;movable=1;resizable=1;rotatable=1;deletable=1;editable=1;locked=0;connectable=1;" vertex="1" parent="1">
          <mxGeometry x="2569" y="-2737" width="95" height="30" as="geometry" />
        </mxCell>
        <mxCell id="N2_QX7AaUiCL6Sj8VyHO-97" value="0x7ffe3e338000:1024" style="rounded=0;whiteSpace=wrap;html=1;strokeColor=#6c8ebf;align=center;verticalAlign=middle;fontFamily=Helvetica;fontSize=12;fillColor=#dae8fc;movable=1;resizable=1;rotatable=1;deletable=1;editable=1;locked=0;connectable=1;" vertex="1" parent="1">
          <mxGeometry x="2779" y="-2757" width="140" height="20" as="geometry" />
        </mxCell>
        <mxCell id="N2_QX7AaUiCL6Sj8VyHO-98" value="" style="whiteSpace=wrap;html=1;rounded=0;movable=1;resizable=1;rotatable=1;deletable=1;editable=1;locked=0;connectable=1;" vertex="1" parent="1">
          <mxGeometry x="2779" y="-2737" width="140" height="30" as="geometry" />
        </mxCell>
        <mxCell id="N2_QX7AaUiCL6Sj8VyHO-99" value="" style="shape=flexArrow;endArrow=classic;html=1;rounded=0;fontFamily=Helvetica;fontSize=12;fontColor=default;movable=1;resizable=1;rotatable=1;deletable=1;editable=1;locked=0;connectable=1;" edge="1" parent="1">
          <mxGeometry width="50" height="50" relative="1" as="geometry">
            <mxPoint x="2519" y="-2727" as="sourcePoint" />
            <mxPoint x="2559" y="-2727" as="targetPoint" />
          </mxGeometry>
        </mxCell>
        <mxCell id="N2_QX7AaUiCL6Sj8VyHO-100" value="" style="shape=flexArrow;endArrow=classic;html=1;rounded=0;fontFamily=Helvetica;fontSize=12;fontColor=default;movable=1;resizable=1;rotatable=1;deletable=1;editable=1;locked=0;connectable=1;" edge="1" parent="1">
          <mxGeometry width="50" height="50" relative="1" as="geometry">
            <mxPoint x="2729" y="-2727" as="sourcePoint" />
            <mxPoint x="2769" y="-2727" as="targetPoint" />
          </mxGeometry>
        </mxCell>
        <mxCell id="N2_QX7AaUiCL6Sj8VyHO-101" value="724" style="whiteSpace=wrap;html=1;rounded=0;movable=1;resizable=1;rotatable=1;deletable=1;editable=1;locked=0;connectable=1;" vertex="1" parent="1">
          <mxGeometry x="2429" y="-2737" width="80" height="30" as="geometry" />
        </mxCell>
        <mxCell id="N2_QX7AaUiCL6Sj8VyHO-102" value="424" style="whiteSpace=wrap;html=1;rounded=0;movable=1;resizable=1;rotatable=1;deletable=1;editable=1;locked=0;connectable=1;" vertex="1" parent="1">
          <mxGeometry x="2664" y="-2737" width="45" height="30" as="geometry" />
        </mxCell>
        <mxCell id="N2_QX7AaUiCL6Sj8VyHO-158" value="&lt;font style=&quot;font-size: 15px;&quot;&gt;用户进程1虚拟地址范围&lt;/font&gt;" style="rounded=0;whiteSpace=wrap;html=1;fillColor=#dae8fc;strokeColor=#6c8ebf;" vertex="1" parent="1">
          <mxGeometry x="160" y="-1960" width="240" height="30" as="geometry" />
        </mxCell>
        <mxCell id="N2_QX7AaUiCL6Sj8VyHO-159" value="&lt;font style=&quot;font-size: 15px;&quot;&gt;.......&lt;/font&gt;" style="rounded=0;whiteSpace=wrap;html=1;fillColor=#dae8fc;strokeColor=#6c8ebf;" vertex="1" parent="1">
          <mxGeometry x="160" y="-1930" width="240" height="30" as="geometry" />
        </mxCell>
        <mxCell id="N2_QX7AaUiCL6Sj8VyHO-160" value="&lt;font style=&quot;font-size: 15px;&quot;&gt;用户进程n虚拟地址范围&lt;/font&gt;" style="rounded=0;whiteSpace=wrap;html=1;fillColor=#dae8fc;strokeColor=#6c8ebf;" vertex="1" parent="1">
          <mxGeometry x="160" y="-1900" width="240" height="30" as="geometry" />
        </mxCell>
        <mxCell id="N2_QX7AaUiCL6Sj8VyHO-161" value="&lt;font style=&quot;font-size: 15px;&quot;&gt;未定义的虚拟内存地址范围&lt;/font&gt;" style="rounded=0;whiteSpace=wrap;html=1;fillColor=#fff2cc;strokeColor=#d6b656;" vertex="1" parent="1">
          <mxGeometry x="400" y="-1960" width="150" height="90" as="geometry" />
        </mxCell>
        <mxCell id="N2_QX7AaUiCL6Sj8VyHO-162" value="&lt;font style=&quot;font-size: 15px;&quot;&gt;内核虚拟内存地址范围&lt;/font&gt;" style="rounded=0;whiteSpace=wrap;html=1;fillColor=#f8cecc;strokeColor=#b85450;" vertex="1" parent="1">
          <mxGeometry x="550" y="-1960" width="100" height="90" as="geometry" />
        </mxCell>
        <mxCell id="N2_QX7AaUiCL6Sj8VyHO-169" value="" style="endArrow=classic;html=1;rounded=0;strokeWidth=3;" edge="1" parent="1">
          <mxGeometry width="50" height="50" relative="1" as="geometry">
            <mxPoint x="160" y="-1960" as="sourcePoint" />
            <mxPoint x="160" y="-2020" as="targetPoint" />
          </mxGeometry>
        </mxCell>
        <mxCell id="N2_QX7AaUiCL6Sj8VyHO-170" value="&lt;font style=&quot;font-size: 15px;&quot;&gt;0x00&lt;/font&gt;" style="edgeLabel;html=1;align=center;verticalAlign=middle;resizable=0;points=[];" vertex="1" connectable="0" parent="N2_QX7AaUiCL6Sj8VyHO-169">
          <mxGeometry x="0.15" relative="1" as="geometry">
            <mxPoint y="15" as="offset" />
          </mxGeometry>
        </mxCell>
        <mxCell id="N2_QX7AaUiCL6Sj8VyHO-171" value="" style="endArrow=classic;html=1;rounded=0;strokeWidth=3;" edge="1" parent="1">
          <mxGeometry width="50" height="50" relative="1" as="geometry">
            <mxPoint x="400" y="-1960" as="sourcePoint" />
            <mxPoint x="400" y="-2010" as="targetPoint" />
          </mxGeometry>
        </mxCell>
        <mxCell id="N2_QX7AaUiCL6Sj8VyHO-172" value="&lt;font style=&quot;font-size: 15px;&quot;&gt;0x 00 00 7f ff ff ff f0 00&lt;/font&gt;" style="edgeLabel;html=1;align=center;verticalAlign=middle;resizable=0;points=[];" vertex="1" connectable="0" parent="N2_QX7AaUiCL6Sj8VyHO-171">
          <mxGeometry x="0.15" relative="1" as="geometry">
            <mxPoint y="9" as="offset" />
          </mxGeometry>
        </mxCell>
        <mxCell id="N2_QX7AaUiCL6Sj8VyHO-173" value="" style="endArrow=classic;html=1;rounded=0;strokeWidth=3;" edge="1" parent="1">
          <mxGeometry width="50" height="50" relative="1" as="geometry">
            <mxPoint x="550" y="-1960" as="sourcePoint" />
            <mxPoint x="550" y="-2070" as="targetPoint" />
          </mxGeometry>
        </mxCell>
        <mxCell id="N2_QX7AaUiCL6Sj8VyHO-174" value="&lt;font style=&quot;font-size: 15px;&quot;&gt;0x ff ff 80 00 00 00 00 00&lt;/font&gt;" style="edgeLabel;html=1;align=center;verticalAlign=middle;resizable=0;points=[];" vertex="1" connectable="0" parent="N2_QX7AaUiCL6Sj8VyHO-173">
          <mxGeometry x="0.15" relative="1" as="geometry">
            <mxPoint as="offset" />
          </mxGeometry>
        </mxCell>
        <mxCell id="N2_QX7AaUiCL6Sj8VyHO-175" value="" style="endArrow=classic;html=1;rounded=0;strokeWidth=3;" edge="1" parent="1">
          <mxGeometry width="50" height="50" relative="1" as="geometry">
            <mxPoint x="650" y="-1960" as="sourcePoint" />
            <mxPoint x="650" y="-2030" as="targetPoint" />
          </mxGeometry>
        </mxCell>
        <mxCell id="N2_QX7AaUiCL6Sj8VyHO-176" value="&lt;font style=&quot;font-size: 15px;&quot;&gt;0x ff ff ff ff ff ff ff ff&lt;/font&gt;" style="edgeLabel;html=1;align=center;verticalAlign=middle;resizable=0;points=[];" vertex="1" connectable="0" parent="N2_QX7AaUiCL6Sj8VyHO-175">
          <mxGeometry x="0.15" relative="1" as="geometry">
            <mxPoint y="10" as="offset" />
          </mxGeometry>
        </mxCell>
        <mxCell id="N2_QX7AaUiCL6Sj8VyHO-177" value="&lt;font style=&quot;font-size: 20px;&quot;&gt;物理内存&lt;/font&gt;" style="rounded=0;whiteSpace=wrap;html=1;fillColor=#d5e8d4;strokeColor=#82b366;" vertex="1" parent="1">
          <mxGeometry x="160" y="-1640" width="490" height="60" as="geometry" />
        </mxCell>
        <mxCell id="N2_QX7AaUiCL6Sj8VyHO-178" value="" style="endArrow=classic;html=1;rounded=0;strokeWidth=3;" edge="1" parent="1">
          <mxGeometry width="50" height="50" relative="1" as="geometry">
            <mxPoint x="160" y="-1640" as="sourcePoint" />
            <mxPoint x="160" y="-1700" as="targetPoint" />
          </mxGeometry>
        </mxCell>
        <mxCell id="N2_QX7AaUiCL6Sj8VyHO-179" value="&lt;font style=&quot;font-size: 15px;&quot;&gt;0x00&lt;/font&gt;" style="edgeLabel;html=1;align=center;verticalAlign=middle;resizable=0;points=[];" vertex="1" connectable="0" parent="N2_QX7AaUiCL6Sj8VyHO-178">
          <mxGeometry x="0.15" relative="1" as="geometry">
            <mxPoint y="5" as="offset" />
          </mxGeometry>
        </mxCell>
        <mxCell id="N2_QX7AaUiCL6Sj8VyHO-180" value="" style="endArrow=classic;html=1;rounded=0;strokeWidth=3;" edge="1" parent="1">
          <mxGeometry width="50" height="50" relative="1" as="geometry">
            <mxPoint x="649" y="-1640" as="sourcePoint" />
            <mxPoint x="649" y="-1700" as="targetPoint" />
          </mxGeometry>
        </mxCell>
        <mxCell id="N2_QX7AaUiCL6Sj8VyHO-181" value="&lt;font style=&quot;font-size: 15px;&quot;&gt;4G&lt;/font&gt;" style="edgeLabel;html=1;align=center;verticalAlign=middle;resizable=0;points=[];" vertex="1" connectable="0" parent="N2_QX7AaUiCL6Sj8VyHO-180">
          <mxGeometry x="0.15" relative="1" as="geometry">
            <mxPoint y="5" as="offset" />
          </mxGeometry>
        </mxCell>
        <mxCell id="N2_QX7AaUiCL6Sj8VyHO-184" value="" style="swimlane;startSize=0;dashed=1;" vertex="1" parent="1">
          <mxGeometry x="52.5" y="-2150" width="717.5" height="610" as="geometry" />
        </mxCell>
        <mxCell id="N2_QX7AaUiCL6Sj8VyHO-185" value="Linux系统中无论操作系统还是应用程序的代码所使用的地址空间都是虚拟地址,这样就相当于屏蔽了物理地址" style="shape=callout;whiteSpace=wrap;html=1;perimeter=calloutPerimeter;" vertex="1" parent="N2_QX7AaUiCL6Sj8VyHO-184">
          <mxGeometry x="37.5" y="20" width="460" height="80" as="geometry" />
        </mxCell>
        <mxCell id="N2_QX7AaUiCL6Sj8VyHO-191" value="" style="swimlane;startSize=0;" vertex="1" parent="N2_QX7AaUiCL6Sj8VyHO-184">
          <mxGeometry x="260" y="340" width="187.5" height="90" as="geometry" />
        </mxCell>
        <mxCell id="N2_QX7AaUiCL6Sj8VyHO-192" value="&lt;font style=&quot;font-size: 15px;&quot;&gt;MMU&lt;/font&gt;" style="text;html=1;align=center;verticalAlign=middle;resizable=0;points=[];autosize=1;strokeColor=none;fillColor=none;strokeWidth=15;" vertex="1" parent="N2_QX7AaUiCL6Sj8VyHO-191">
          <mxGeometry x="127.5" width="60" height="30" as="geometry" />
        </mxCell>
        <mxCell id="N2_QX7AaUiCL6Sj8VyHO-186" value="&lt;font style=&quot;font-size: 15px;&quot;&gt;页表&lt;/font&gt;" style="rounded=1;whiteSpace=wrap;html=1;fillColor=#60a917;strokeColor=#2D7600;fontColor=#ffffff;" vertex="1" parent="1">
          <mxGeometry x="365" y="-1797" width="80" height="20" as="geometry" />
        </mxCell>
        <mxCell id="N2_QX7AaUiCL6Sj8VyHO-187" value="&lt;font style=&quot;font-size: 15px;&quot;&gt;页表&lt;/font&gt;" style="rounded=1;whiteSpace=wrap;html=1;fillColor=#60a917;fontColor=#ffffff;strokeColor=#2D7600;" vertex="1" parent="1">
          <mxGeometry x="365" y="-1777" width="80" height="20" as="geometry" />
        </mxCell>
        <mxCell id="N2_QX7AaUiCL6Sj8VyHO-188" value="&lt;font style=&quot;font-size: 15px;&quot;&gt;页表&lt;/font&gt;" style="rounded=1;whiteSpace=wrap;html=1;fillColor=#60a917;fontColor=#ffffff;strokeColor=#2D7600;" vertex="1" parent="1">
          <mxGeometry x="365" y="-1757" width="80" height="20" as="geometry" />
        </mxCell>
        <mxCell id="N2_QX7AaUiCL6Sj8VyHO-189" value="" style="shape=flexArrow;endArrow=classic;html=1;rounded=0;fillColor=#d5e8d4;strokeColor=#82b366;" edge="1" parent="1">
          <mxGeometry width="50" height="50" relative="1" as="geometry">
            <mxPoint x="399.5" y="-1860" as="sourcePoint" />
            <mxPoint x="399.5" y="-1808" as="targetPoint" />
            <Array as="points">
              <mxPoint x="399.5" y="-1848" />
            </Array>
          </mxGeometry>
        </mxCell>
        <mxCell id="N2_QX7AaUiCL6Sj8VyHO-190" value="" style="shape=flexArrow;endArrow=classic;html=1;rounded=0;fillColor=#d5e8d4;strokeColor=#82b366;" edge="1" parent="1">
          <mxGeometry width="50" height="50" relative="1" as="geometry">
            <mxPoint x="400" y="-1720" as="sourcePoint" />
            <mxPoint x="400" y="-1668" as="targetPoint" />
            <Array as="points">
              <mxPoint x="400" y="-1708" />
            </Array>
          </mxGeometry>
        </mxCell>
        <mxCell id="N2_QX7AaUiCL6Sj8VyHO-193" value="&lt;font color=&quot;#ff3333&quot; style=&quot;font-size: 20px;&quot;&gt;实际存在硬件里面的空间地址叫物理地址&lt;/font&gt;" style="shape=callout;whiteSpace=wrap;html=1;perimeter=calloutPerimeter;fillColor=#f5f5f5;fontColor=#333333;strokeColor=#666666;position2=0.28;size=30;position=0.32;" vertex="1" parent="1">
          <mxGeometry x="45" y="-2460" width="210" height="80" as="geometry" />
        </mxCell>
        <mxCell id="N2_QX7AaUiCL6Sj8VyHO-194" value="&lt;font style=&quot;font-size: 20px;&quot;&gt;物理地址&lt;/font&gt;" style="rounded=0;whiteSpace=wrap;html=1;fillColor=#ffe6cc;strokeColor=#d79b00;" vertex="1" parent="1">
          <mxGeometry x="45" y="-2370" width="110" height="40" as="geometry" />
        </mxCell>
        <mxCell id="N2_QX7AaUiCL6Sj8VyHO-196" value="&lt;font style=&quot;font-size: 20px;&quot;&gt;虚拟地址&lt;/font&gt;" style="rounded=0;whiteSpace=wrap;html=1;fillColor=#fff2cc;strokeColor=#d6b656;" vertex="1" parent="1">
          <mxGeometry x="175" y="-2370" width="110" height="40" as="geometry" />
        </mxCell>
        <mxCell id="N2_QX7AaUiCL6Sj8VyHO-197" value="&lt;font style=&quot;font-size: 20px;&quot;&gt;逻辑地址&lt;/font&gt;" style="rounded=0;whiteSpace=wrap;html=1;fillColor=#f8cecc;strokeColor=#b85450;" vertex="1" parent="1">
          <mxGeometry x="314" y="-2370" width="110" height="40" as="geometry" />
        </mxCell>
        <mxCell id="N2_QX7AaUiCL6Sj8VyHO-198" value="&lt;font style=&quot;font-size: 20px;&quot; color=&quot;#ff3333&quot;&gt;页式内存管理方式转换前的地址叫虚拟地址(线性地址),linux系统采用的就是页式内存管理&lt;/font&gt;" style="shape=callout;whiteSpace=wrap;html=1;perimeter=calloutPerimeter;fillColor=#f5f5f5;fontColor=#333333;strokeColor=#666666;position2=0.28;size=30;position=0.32;flipV=1;" vertex="1" parent="1">
          <mxGeometry x="135" y="-2330" width="270" height="150" as="geometry" />
        </mxCell>
        <mxCell id="N2_QX7AaUiCL6Sj8VyHO-199" value="&lt;font style=&quot;font-size: 20px;&quot; color=&quot;#ff3333&quot;&gt;段式内存管理方式转换前的地址叫逻辑地址&lt;/font&gt;" style="shape=callout;whiteSpace=wrap;html=1;perimeter=calloutPerimeter;fillColor=#f5f5f5;fontColor=#333333;strokeColor=#666666;position2=0.28;size=30;position=0.32;" vertex="1" parent="1">
          <mxGeometry x="305" y="-2460" width="210" height="80" as="geometry" />
        </mxCell>
        <mxCell id="N2_QX7AaUiCL6Sj8VyHO-235" value="" style="swimlane;startSize=0;dashed=1;" vertex="1" parent="1">
          <mxGeometry x="820" y="-2460" width="460" height="920" as="geometry" />
        </mxCell>
        <mxCell id="N2_QX7AaUiCL6Sj8VyHO-203" value="&lt;font style=&quot;font-size: 20px;&quot;&gt;CPU&lt;/font&gt;" style="rounded=0;whiteSpace=wrap;html=1;fillColor=#6a00ff;fontColor=#ffffff;strokeColor=#3700CC;" vertex="1" parent="N2_QX7AaUiCL6Sj8VyHO-235">
          <mxGeometry x="125" y="20" width="50" height="40" as="geometry" />
        </mxCell>
        <mxCell id="N2_QX7AaUiCL6Sj8VyHO-204" value="&lt;font style=&quot;font-size: 20px;&quot;&gt;虚拟地址&lt;/font&gt;" style="rounded=0;whiteSpace=wrap;html=1;fillColor=#fff2cc;strokeColor=#d6b656;" vertex="1" parent="N2_QX7AaUiCL6Sj8VyHO-235">
          <mxGeometry x="70" y="100" width="160" height="40" as="geometry" />
        </mxCell>
        <mxCell id="N2_QX7AaUiCL6Sj8VyHO-205" value="&lt;font style=&quot;font-size: 15px;&quot;&gt;段选择因子&lt;/font&gt;" style="rounded=0;whiteSpace=wrap;html=1;fillColor=#ffe6cc;strokeColor=#d79b00;" vertex="1" parent="N2_QX7AaUiCL6Sj8VyHO-235">
          <mxGeometry x="70" y="140" width="80" height="40" as="geometry" />
        </mxCell>
        <mxCell id="N2_QX7AaUiCL6Sj8VyHO-206" value="&lt;font style=&quot;font-size: 15px;&quot;&gt;段内偏移量&lt;/font&gt;" style="rounded=0;whiteSpace=wrap;html=1;fillColor=#ffe6cc;strokeColor=#d79b00;" vertex="1" parent="N2_QX7AaUiCL6Sj8VyHO-235">
          <mxGeometry x="150" y="140" width="80" height="40" as="geometry" />
        </mxCell>
        <mxCell id="N2_QX7AaUiCL6Sj8VyHO-207" value="段号" style="rounded=0;whiteSpace=wrap;html=1;fillColor=#dae8fc;strokeColor=#6c8ebf;" vertex="1" parent="N2_QX7AaUiCL6Sj8VyHO-235">
          <mxGeometry x="70" y="180" width="30" height="30" as="geometry" />
        </mxCell>
        <mxCell id="N2_QX7AaUiCL6Sj8VyHO-208" value="段特权等标志位" style="rounded=0;whiteSpace=wrap;html=1;fillColor=#d5e8d4;strokeColor=#82b366;" vertex="1" parent="N2_QX7AaUiCL6Sj8VyHO-235">
          <mxGeometry x="100" y="180" width="50" height="30" as="geometry" />
        </mxCell>
        <mxCell id="N2_QX7AaUiCL6Sj8VyHO-209" value="" style="rounded=0;whiteSpace=wrap;html=1;fillColor=#f5f5f5;fontColor=#333333;strokeColor=#666666;" vertex="1" parent="N2_QX7AaUiCL6Sj8VyHO-235">
          <mxGeometry x="130" y="260" width="90" height="90" as="geometry" />
        </mxCell>
        <mxCell id="N2_QX7AaUiCL6Sj8VyHO-210" value="段内描述符" style="rounded=0;whiteSpace=wrap;html=1;fillColor=#e1d5e7;strokeColor=#9673a6;" vertex="1" parent="N2_QX7AaUiCL6Sj8VyHO-235">
          <mxGeometry x="130" y="300" width="90" height="20" as="geometry" />
        </mxCell>
        <mxCell id="N2_QX7AaUiCL6Sj8VyHO-212" value="" style="endArrow=classic;html=1;rounded=0;exitX=0.567;exitY=1.1;exitDx=0;exitDy=0;exitPerimeter=0;entryX=0;entryY=0.65;entryDx=0;entryDy=0;entryPerimeter=0;" edge="1" parent="N2_QX7AaUiCL6Sj8VyHO-235" source="N2_QX7AaUiCL6Sj8VyHO-207" target="N2_QX7AaUiCL6Sj8VyHO-210">
          <mxGeometry width="50" height="50" relative="1" as="geometry">
            <mxPoint x="100" y="473" as="sourcePoint" />
            <mxPoint x="150" y="423" as="targetPoint" />
            <Array as="points">
              <mxPoint x="87" y="313" />
            </Array>
          </mxGeometry>
        </mxCell>
        <mxCell id="N2_QX7AaUiCL6Sj8VyHO-213" value="&lt;b&gt;&lt;font color=&quot;#ff3333&quot; style=&quot;font-size: 11px;&quot;&gt;段表索引&lt;/font&gt;&lt;/b&gt;" style="edgeLabel;html=1;align=center;verticalAlign=middle;resizable=0;points=[];" vertex="1" connectable="0" parent="N2_QX7AaUiCL6Sj8VyHO-212">
          <mxGeometry x="-0.4406" y="3" relative="1" as="geometry">
            <mxPoint as="offset" />
          </mxGeometry>
        </mxCell>
        <mxCell id="N2_QX7AaUiCL6Sj8VyHO-214" value="段基物理地址" style="rounded=0;whiteSpace=wrap;html=1;fillColor=#f8cecc;strokeColor=#b85450;" vertex="1" parent="N2_QX7AaUiCL6Sj8VyHO-235">
          <mxGeometry x="70" y="395" width="60" height="35" as="geometry" />
        </mxCell>
        <mxCell id="N2_QX7AaUiCL6Sj8VyHO-215" value="段界限" style="rounded=0;whiteSpace=wrap;html=1;" vertex="1" parent="N2_QX7AaUiCL6Sj8VyHO-235">
          <mxGeometry x="130" y="395" width="60" height="35" as="geometry" />
        </mxCell>
        <mxCell id="N2_QX7AaUiCL6Sj8VyHO-216" value="段特权级" style="rounded=0;whiteSpace=wrap;html=1;fillColor=#d5e8d4;strokeColor=#82b366;" vertex="1" parent="N2_QX7AaUiCL6Sj8VyHO-235">
          <mxGeometry x="190" y="395" width="60" height="35" as="geometry" />
        </mxCell>
        <mxCell id="N2_QX7AaUiCL6Sj8VyHO-217" value="" style="endArrow=none;dashed=1;html=1;dashPattern=1 3;strokeWidth=2;rounded=0;" edge="1" parent="N2_QX7AaUiCL6Sj8VyHO-235">
          <mxGeometry width="50" height="50" relative="1" as="geometry">
            <mxPoint x="80" y="390" as="sourcePoint" />
            <mxPoint x="130" y="320" as="targetPoint" />
          </mxGeometry>
        </mxCell>
        <mxCell id="N2_QX7AaUiCL6Sj8VyHO-218" value="" style="endArrow=none;dashed=1;html=1;dashPattern=1 3;strokeWidth=2;rounded=0;" edge="1" parent="N2_QX7AaUiCL6Sj8VyHO-235">
          <mxGeometry width="50" height="50" relative="1" as="geometry">
            <mxPoint x="250" y="390" as="sourcePoint" />
            <mxPoint x="220" y="320" as="targetPoint" />
          </mxGeometry>
        </mxCell>
        <mxCell id="N2_QX7AaUiCL6Sj8VyHO-219" value="" style="endArrow=classic;html=1;rounded=0;exitX=0.52;exitY=1.05;exitDx=0;exitDy=0;exitPerimeter=0;entryX=0.506;entryY=0;entryDx=0;entryDy=0;entryPerimeter=0;" edge="1" parent="N2_QX7AaUiCL6Sj8VyHO-235" source="N2_QX7AaUiCL6Sj8VyHO-203" target="N2_QX7AaUiCL6Sj8VyHO-204">
          <mxGeometry width="50" height="50" relative="1" as="geometry">
            <mxPoint x="240" y="50" as="sourcePoint" />
            <mxPoint x="290" as="targetPoint" />
          </mxGeometry>
        </mxCell>
        <mxCell id="N2_QX7AaUiCL6Sj8VyHO-220" value="&lt;font style=&quot;font-size: 20px;&quot;&gt;物理地址&lt;/font&gt;" style="rounded=0;whiteSpace=wrap;html=1;fillColor=#d5e8d4;strokeColor=#82b366;" vertex="1" parent="N2_QX7AaUiCL6Sj8VyHO-235">
          <mxGeometry x="80" y="550" width="250" height="40" as="geometry" />
        </mxCell>
        <mxCell id="N2_QX7AaUiCL6Sj8VyHO-221" value="" style="shape=flexArrow;endArrow=classic;html=1;rounded=0;" edge="1" parent="N2_QX7AaUiCL6Sj8VyHO-235">
          <mxGeometry width="50" height="50" relative="1" as="geometry">
            <mxPoint x="150" y="629.5" as="sourcePoint" />
            <mxPoint x="240" y="629.5" as="targetPoint" />
            <Array as="points">
              <mxPoint x="200" y="629.5" />
            </Array>
          </mxGeometry>
        </mxCell>
        <mxCell id="N2_QX7AaUiCL6Sj8VyHO-222" value="&lt;font style=&quot;font-size: 20px;&quot;&gt;低地址&lt;/font&gt;" style="text;html=1;align=center;verticalAlign=middle;resizable=0;points=[];autosize=1;strokeColor=none;fillColor=none;" vertex="1" parent="N2_QX7AaUiCL6Sj8VyHO-235">
          <mxGeometry x="70" y="610" width="80" height="40" as="geometry" />
        </mxCell>
        <mxCell id="N2_QX7AaUiCL6Sj8VyHO-223" value="&lt;font style=&quot;font-size: 20px;&quot;&gt;高地址&lt;/font&gt;" style="text;html=1;align=center;verticalAlign=middle;resizable=0;points=[];autosize=1;strokeColor=none;fillColor=none;" vertex="1" parent="N2_QX7AaUiCL6Sj8VyHO-235">
          <mxGeometry x="260" y="610" width="80" height="40" as="geometry" />
        </mxCell>
        <mxCell id="N2_QX7AaUiCL6Sj8VyHO-224" value="..." style="rounded=0;whiteSpace=wrap;html=1;fillColor=#d5e8d4;strokeColor=#82b366;" vertex="1" parent="N2_QX7AaUiCL6Sj8VyHO-235">
          <mxGeometry x="80" y="540" width="50" height="10" as="geometry" />
        </mxCell>
        <mxCell id="N2_QX7AaUiCL6Sj8VyHO-225" value="" style="rounded=0;whiteSpace=wrap;html=1;fillColor=#d5e8d4;strokeColor=#82b366;" vertex="1" parent="N2_QX7AaUiCL6Sj8VyHO-235">
          <mxGeometry x="130" y="540" width="120" height="10" as="geometry" />
        </mxCell>
        <mxCell id="N2_QX7AaUiCL6Sj8VyHO-226" value="..." style="rounded=0;whiteSpace=wrap;html=1;fillColor=#d5e8d4;strokeColor=#82b366;" vertex="1" parent="N2_QX7AaUiCL6Sj8VyHO-235">
          <mxGeometry x="250" y="540" width="80" height="10" as="geometry" />
        </mxCell>
        <mxCell id="N2_QX7AaUiCL6Sj8VyHO-227" value="" style="endArrow=classic;html=1;rounded=0;exitX=0.5;exitY=1.029;exitDx=0;exitDy=0;exitPerimeter=0;entryX=0;entryY=0;entryDx=0;entryDy=0;entryPerimeter=0;" edge="1" parent="N2_QX7AaUiCL6Sj8VyHO-235" source="N2_QX7AaUiCL6Sj8VyHO-214" target="N2_QX7AaUiCL6Sj8VyHO-225">
          <mxGeometry width="50" height="50" relative="1" as="geometry">
            <mxPoint x="120" y="880" as="sourcePoint" />
            <mxPoint x="170" y="830" as="targetPoint" />
          </mxGeometry>
        </mxCell>
        <mxCell id="N2_QX7AaUiCL6Sj8VyHO-228" value="" style="endArrow=classic;html=1;rounded=0;exitX=0.65;exitY=1.057;exitDx=0;exitDy=0;exitPerimeter=0;" edge="1" parent="N2_QX7AaUiCL6Sj8VyHO-235" source="N2_QX7AaUiCL6Sj8VyHO-215">
          <mxGeometry width="50" height="50" relative="1" as="geometry">
            <mxPoint x="360" y="810" as="sourcePoint" />
            <mxPoint x="250" y="540" as="targetPoint" />
          </mxGeometry>
        </mxCell>
        <mxCell id="N2_QX7AaUiCL6Sj8VyHO-229" value="" style="endArrow=classic;html=1;rounded=0;exitX=0.563;exitY=1;exitDx=0;exitDy=0;exitPerimeter=0;entryX=0.675;entryY=0.2;entryDx=0;entryDy=0;entryPerimeter=0;" edge="1" parent="N2_QX7AaUiCL6Sj8VyHO-235" source="N2_QX7AaUiCL6Sj8VyHO-206" target="N2_QX7AaUiCL6Sj8VyHO-225">
          <mxGeometry width="50" height="50" relative="1" as="geometry">
            <mxPoint x="410" y="340" as="sourcePoint" />
            <mxPoint x="460" y="290" as="targetPoint" />
            <Array as="points">
              <mxPoint x="370" y="220" />
              <mxPoint x="370" y="460" />
              <mxPoint x="210" y="460" />
            </Array>
          </mxGeometry>
        </mxCell>
        <mxCell id="N2_QX7AaUiCL6Sj8VyHO-230" value="" style="endArrow=none;html=1;rounded=0;dashed=1;" edge="1" parent="N2_QX7AaUiCL6Sj8VyHO-235">
          <mxGeometry width="50" height="50" relative="1" as="geometry">
            <mxPoint x="130" y="540" as="sourcePoint" />
            <mxPoint x="210" y="540" as="targetPoint" />
            <Array as="points">
              <mxPoint x="165" y="510" />
            </Array>
          </mxGeometry>
        </mxCell>
        <mxCell id="N2_QX7AaUiCL6Sj8VyHO-232" value="段内偏移量" style="text;html=1;align=center;verticalAlign=middle;whiteSpace=wrap;rounded=0;" vertex="1" parent="N2_QX7AaUiCL6Sj8VyHO-235">
          <mxGeometry x="130" y="483" width="70" height="30" as="geometry" />
        </mxCell>
        <mxCell id="N2_QX7AaUiCL6Sj8VyHO-233" value="&lt;font style=&quot;font-size: 15px;&quot;&gt;段表&lt;/font&gt;" style="text;html=1;align=center;verticalAlign=middle;whiteSpace=wrap;rounded=0;" vertex="1" parent="N2_QX7AaUiCL6Sj8VyHO-235">
          <mxGeometry x="160" y="230" width="60" height="30" as="geometry" />
        </mxCell>
        <mxCell id="N2_QX7AaUiCL6Sj8VyHO-236" value="&lt;div&gt;&lt;font style=&quot;font-size: 20px;&quot; color=&quot;#ff3333&quot;&gt;段式内存管理方式&lt;/font&gt;&lt;/div&gt;" style="shape=callout;whiteSpace=wrap;html=1;perimeter=calloutPerimeter;fillColor=#f5f5f5;fontColor=#333333;strokeColor=#666666;position2=0;size=30;position=0.32;base=13;" vertex="1" parent="N2_QX7AaUiCL6Sj8VyHO-235">
          <mxGeometry x="240" y="10" width="200" height="100" as="geometry" />
        </mxCell>
        <mxCell id="u6ekdoRCVKn9uhZl3rHA-1" value="&lt;font style=&quot;font-size: 20px;&quot;&gt;CPU&lt;/font&gt;" style="rounded=0;whiteSpace=wrap;html=1;fillColor=#6a00ff;fontColor=#ffffff;strokeColor=#3700CC;" vertex="1" parent="1">
          <mxGeometry x="1486" y="-2250" width="50" height="40" as="geometry" />
        </mxCell>
        <mxCell id="u6ekdoRCVKn9uhZl3rHA-2" value="&lt;font style=&quot;font-size: 20px;&quot;&gt;虚拟地址&lt;/font&gt;" style="rounded=0;whiteSpace=wrap;html=1;fillColor=#fff2cc;strokeColor=#d6b656;" vertex="1" parent="1">
          <mxGeometry x="1431" y="-2170" width="160" height="40" as="geometry" />
        </mxCell>
        <mxCell id="u6ekdoRCVKn9uhZl3rHA-3" value="&lt;font style=&quot;font-size: 15px;&quot;&gt;页号&lt;/font&gt;" style="rounded=0;whiteSpace=wrap;html=1;fillColor=#ffe6cc;strokeColor=#d79b00;" vertex="1" parent="1">
          <mxGeometry x="1431" y="-2130" width="80" height="40" as="geometry" />
        </mxCell>
        <mxCell id="u6ekdoRCVKn9uhZl3rHA-4" value="&lt;font style=&quot;font-size: 15px;&quot;&gt;页内偏移量&lt;/font&gt;" style="rounded=0;whiteSpace=wrap;html=1;fillColor=#ffe6cc;strokeColor=#d79b00;" vertex="1" parent="1">
          <mxGeometry x="1511" y="-2130" width="80" height="40" as="geometry" />
        </mxCell>
        <mxCell id="u6ekdoRCVKn9uhZl3rHA-7" value="&lt;font style=&quot;font-size: 15px;&quot;&gt;...&lt;/font&gt;" style="rounded=0;whiteSpace=wrap;html=1;fillColor=#f5f5f5;fontColor=#333333;strokeColor=#666666;" vertex="1" parent="1">
          <mxGeometry x="1461" y="-2050" width="120" height="30" as="geometry" />
        </mxCell>
        <mxCell id="u6ekdoRCVKn9uhZl3rHA-16" value="" style="endArrow=classic;html=1;rounded=0;exitX=0.52;exitY=1.05;exitDx=0;exitDy=0;exitPerimeter=0;entryX=0.506;entryY=0;entryDx=0;entryDy=0;entryPerimeter=0;" edge="1" parent="1" source="u6ekdoRCVKn9uhZl3rHA-1" target="u6ekdoRCVKn9uhZl3rHA-2">
          <mxGeometry width="50" height="50" relative="1" as="geometry">
            <mxPoint x="1601" y="-2220" as="sourcePoint" />
            <mxPoint x="1651" y="-2270" as="targetPoint" />
          </mxGeometry>
        </mxCell>
        <mxCell id="u6ekdoRCVKn9uhZl3rHA-18" value="" style="shape=flexArrow;endArrow=classic;html=1;rounded=0;" edge="1" parent="1">
          <mxGeometry width="50" height="50" relative="1" as="geometry">
            <mxPoint x="1479" y="-1703.5" as="sourcePoint" />
            <mxPoint x="1569" y="-1703.5" as="targetPoint" />
            <Array as="points">
              <mxPoint x="1529" y="-1703.5" />
            </Array>
          </mxGeometry>
        </mxCell>
        <mxCell id="u6ekdoRCVKn9uhZl3rHA-19" value="&lt;font style=&quot;font-size: 20px;&quot;&gt;低地址&lt;/font&gt;" style="text;html=1;align=center;verticalAlign=middle;resizable=0;points=[];autosize=1;strokeColor=none;fillColor=none;" vertex="1" parent="1">
          <mxGeometry x="1399" y="-1723" width="80" height="40" as="geometry" />
        </mxCell>
        <mxCell id="u6ekdoRCVKn9uhZl3rHA-20" value="&lt;font style=&quot;font-size: 20px;&quot;&gt;高地址&lt;/font&gt;" style="text;html=1;align=center;verticalAlign=middle;resizable=0;points=[];autosize=1;strokeColor=none;fillColor=none;" vertex="1" parent="1">
          <mxGeometry x="1589" y="-1723" width="80" height="40" as="geometry" />
        </mxCell>
        <mxCell id="u6ekdoRCVKn9uhZl3rHA-29" value="&lt;font style=&quot;font-size: 15px;&quot;&gt;页表&lt;/font&gt;" style="text;html=1;align=center;verticalAlign=middle;whiteSpace=wrap;rounded=0;" vertex="1" parent="1">
          <mxGeometry x="1511" y="-2080" width="60" height="30" as="geometry" />
        </mxCell>
        <mxCell id="u6ekdoRCVKn9uhZl3rHA-32" value="虚拟页号" style="rounded=0;whiteSpace=wrap;html=1;fillColor=#e1d5e7;strokeColor=#9673a6;" vertex="1" parent="1">
          <mxGeometry x="1461" y="-2020" width="60" height="30" as="geometry" />
        </mxCell>
        <mxCell id="u6ekdoRCVKn9uhZl3rHA-33" value="物理页号" style="rounded=0;whiteSpace=wrap;html=1;fillColor=#e1d5e7;strokeColor=#9673a6;" vertex="1" parent="1">
          <mxGeometry x="1521" y="-2020" width="60" height="30" as="geometry" />
        </mxCell>
        <mxCell id="u6ekdoRCVKn9uhZl3rHA-34" value="&lt;font style=&quot;font-size: 15px;&quot;&gt;...&lt;/font&gt;" style="rounded=0;whiteSpace=wrap;html=1;fillColor=#f5f5f5;fontColor=#333333;strokeColor=#666666;" vertex="1" parent="1">
          <mxGeometry x="1461" y="-1990" width="120" height="30" as="geometry" />
        </mxCell>
        <mxCell id="u6ekdoRCVKn9uhZl3rHA-35" value="&lt;font style=&quot;font-size: 15px;&quot;&gt;页1&lt;/font&gt;" style="rounded=0;whiteSpace=wrap;html=1;fillColor=#d5e8d4;strokeColor=#82b366;" vertex="1" parent="1">
          <mxGeometry x="1399" y="-1790" width="71" height="37" as="geometry" />
        </mxCell>
        <mxCell id="u6ekdoRCVKn9uhZl3rHA-36" value="&lt;font style=&quot;font-size: 15px;&quot;&gt;...&lt;/font&gt;" style="rounded=0;whiteSpace=wrap;html=1;fillColor=#d5e8d4;strokeColor=#82b366;" vertex="1" parent="1">
          <mxGeometry x="1470" y="-1790" width="71" height="37" as="geometry" />
        </mxCell>
        <mxCell id="u6ekdoRCVKn9uhZl3rHA-37" value="&lt;font style=&quot;font-size: 15px;&quot;&gt;页n&lt;/font&gt;" style="rounded=0;whiteSpace=wrap;html=1;fillColor=#d5e8d4;strokeColor=#82b366;" vertex="1" parent="1">
          <mxGeometry x="1541" y="-1790" width="71" height="37" as="geometry" />
        </mxCell>
        <mxCell id="u6ekdoRCVKn9uhZl3rHA-38" value="&lt;font style=&quot;font-size: 15px;&quot;&gt;...&lt;/font&gt;" style="rounded=0;whiteSpace=wrap;html=1;fillColor=#d5e8d4;strokeColor=#82b366;" vertex="1" parent="1">
          <mxGeometry x="1612" y="-1790" width="71" height="37" as="geometry" />
        </mxCell>
        <mxCell id="u6ekdoRCVKn9uhZl3rHA-39" value="&lt;font style=&quot;font-size: 15px;&quot;&gt;物理地址&lt;/font&gt;" style="text;html=1;align=center;verticalAlign=middle;whiteSpace=wrap;rounded=0;" vertex="1" parent="1">
          <mxGeometry x="1470" y="-1743" width="96" height="30" as="geometry" />
        </mxCell>
        <mxCell id="u6ekdoRCVKn9uhZl3rHA-40" value="" style="endArrow=classic;html=1;rounded=0;exitX=0.538;exitY=1.025;exitDx=0;exitDy=0;exitPerimeter=0;entryX=0;entryY=0.6;entryDx=0;entryDy=0;entryPerimeter=0;" edge="1" parent="1" source="u6ekdoRCVKn9uhZl3rHA-3" target="u6ekdoRCVKn9uhZl3rHA-32">
          <mxGeometry width="50" height="50" relative="1" as="geometry">
            <mxPoint x="1787" y="-2010" as="sourcePoint" />
            <mxPoint x="1407" y="-2000" as="targetPoint" />
            <Array as="points">
              <mxPoint x="1407" y="-2080" />
              <mxPoint x="1407" y="-2000" />
            </Array>
          </mxGeometry>
        </mxCell>
        <mxCell id="u6ekdoRCVKn9uhZl3rHA-41" value="" style="endArrow=classic;html=1;rounded=0;entryX=0.085;entryY=0.081;entryDx=0;entryDy=0;entryPerimeter=0;" edge="1" parent="1" target="u6ekdoRCVKn9uhZl3rHA-37">
          <mxGeometry width="50" height="50" relative="1" as="geometry">
            <mxPoint x="1587" y="-2005" as="sourcePoint" />
            <mxPoint x="1777" y="-2005" as="targetPoint" />
            <Array as="points">
              <mxPoint x="1627" y="-2005" />
              <mxPoint x="1627" y="-1940" />
              <mxPoint x="1547" y="-1940" />
            </Array>
          </mxGeometry>
        </mxCell>
        <mxCell id="u6ekdoRCVKn9uhZl3rHA-42" value="" style="endArrow=classic;html=1;rounded=0;exitX=1.013;exitY=0.525;exitDx=0;exitDy=0;exitPerimeter=0;entryX=0.563;entryY=0;entryDx=0;entryDy=0;entryPerimeter=0;" edge="1" parent="1" source="u6ekdoRCVKn9uhZl3rHA-4" target="u6ekdoRCVKn9uhZl3rHA-37">
          <mxGeometry width="50" height="50" relative="1" as="geometry">
            <mxPoint x="1817" y="-1920" as="sourcePoint" />
            <mxPoint x="1647" y="-1820" as="targetPoint" />
            <Array as="points">
              <mxPoint x="1647" y="-2110" />
              <mxPoint x="1647" y="-1910" />
              <mxPoint x="1581" y="-1910" />
            </Array>
          </mxGeometry>
        </mxCell>
        <mxCell id="u6ekdoRCVKn9uhZl3rHA-43" value="" style="swimlane;startSize=0;dashed=1;" vertex="1" parent="1">
          <mxGeometry x="1340" y="-2460" width="411" height="920" as="geometry" />
        </mxCell>
        <mxCell id="u6ekdoRCVKn9uhZl3rHA-45" value="&lt;div&gt;&lt;font style=&quot;font-size: 20px;&quot; color=&quot;#ff3333&quot;&gt;页式内存管理方式&lt;/font&gt;&lt;/div&gt;&lt;div&gt;&lt;font style=&quot;font-size: 20px;&quot; color=&quot;#ff3333&quot;&gt;（1级页表方式）&lt;br&gt;&lt;/font&gt;&lt;/div&gt;" style="shape=callout;whiteSpace=wrap;html=1;perimeter=calloutPerimeter;fillColor=#f5f5f5;fontColor=#333333;strokeColor=#666666;position2=0;size=30;position=0.32;base=13;" vertex="1" parent="u6ekdoRCVKn9uhZl3rHA-43">
          <mxGeometry x="121" y="20" width="200" height="100" as="geometry" />
        </mxCell>
        <mxCell id="u6ekdoRCVKn9uhZl3rHA-46" value="&lt;font style=&quot;font-size: 15px;&quot;&gt;每个进程有自己独立的页表，每个虚拟地址的虚拟页号是固定的。物理页号不固定&lt;/font&gt;" style="shape=callout;whiteSpace=wrap;html=1;perimeter=calloutPerimeter;flipH=1;flipV=1;fillColor=#f5f5f5;fontColor=#333333;strokeColor=#666666;position2=0.38;" vertex="1" parent="u6ekdoRCVKn9uhZl3rHA-43">
          <mxGeometry x="31" y="500" width="129" height="127" as="geometry" />
        </mxCell>
        <mxCell id="u6ekdoRCVKn9uhZl3rHA-47" value="&lt;font style=&quot;font-size: 15px;&quot;&gt;32位虚拟地址&lt;/font&gt;" style="rounded=0;whiteSpace=wrap;html=1;fillColor=#f8cecc;strokeColor=#b85450;" vertex="1" parent="1">
          <mxGeometry x="1840" y="-2320" width="300" height="40" as="geometry" />
        </mxCell>
        <mxCell id="u6ekdoRCVKn9uhZl3rHA-48" value="&lt;font style=&quot;font-size: 15px;&quot;&gt;1级页号&lt;/font&gt;" style="rounded=0;whiteSpace=wrap;html=1;fillColor=#ffe6cc;strokeColor=#d79b00;" vertex="1" parent="1">
          <mxGeometry x="1899" y="-2210" width="100" height="40" as="geometry" />
        </mxCell>
        <mxCell id="u6ekdoRCVKn9uhZl3rHA-49" value="&lt;font style=&quot;font-size: 15px;&quot;&gt;2级页号&lt;/font&gt;" style="rounded=0;whiteSpace=wrap;html=1;fillColor=#dae8fc;strokeColor=#6c8ebf;" vertex="1" parent="1">
          <mxGeometry x="1999" y="-2210" width="100" height="40" as="geometry" />
        </mxCell>
        <mxCell id="u6ekdoRCVKn9uhZl3rHA-50" value="&lt;font style=&quot;font-size: 15px;&quot;&gt;页内偏移量&lt;/font&gt;" style="rounded=0;whiteSpace=wrap;html=1;fillColor=#e1d5e7;strokeColor=#9673a6;" vertex="1" parent="1">
          <mxGeometry x="2099" y="-2210" width="100" height="40" as="geometry" />
        </mxCell>
        <mxCell id="u6ekdoRCVKn9uhZl3rHA-51" value="" style="endArrow=none;dashed=1;html=1;dashPattern=1 3;strokeWidth=2;rounded=0;entryX=0;entryY=1.1;entryDx=0;entryDy=0;entryPerimeter=0;exitX=0.01;exitY=0;exitDx=0;exitDy=0;exitPerimeter=0;" edge="1" parent="1" source="u6ekdoRCVKn9uhZl3rHA-48" target="u6ekdoRCVKn9uhZl3rHA-47">
          <mxGeometry width="50" height="50" relative="1" as="geometry">
            <mxPoint x="1840" y="-2050" as="sourcePoint" />
            <mxPoint x="1890" y="-2100" as="targetPoint" />
          </mxGeometry>
        </mxCell>
        <mxCell id="u6ekdoRCVKn9uhZl3rHA-52" value="" style="endArrow=none;dashed=1;html=1;dashPattern=1 3;strokeWidth=2;rounded=0;" edge="1" parent="1">
          <mxGeometry width="50" height="50" relative="1" as="geometry">
            <mxPoint x="2200" y="-2210" as="sourcePoint" />
            <mxPoint x="2139" y="-2280" as="targetPoint" />
          </mxGeometry>
        </mxCell>
        <mxCell id="u6ekdoRCVKn9uhZl3rHA-53" value="" style="endArrow=none;html=1;rounded=0;" edge="1" parent="1">
          <mxGeometry width="50" height="50" relative="1" as="geometry">
            <mxPoint x="1899" y="-2146" as="sourcePoint" />
            <mxPoint x="1899" y="-2166" as="targetPoint" />
          </mxGeometry>
        </mxCell>
        <mxCell id="u6ekdoRCVKn9uhZl3rHA-55" value="" style="endArrow=none;html=1;rounded=0;" edge="1" parent="1">
          <mxGeometry width="50" height="50" relative="1" as="geometry">
            <mxPoint x="1999" y="-2148" as="sourcePoint" />
            <mxPoint x="1999" y="-2168" as="targetPoint" />
          </mxGeometry>
        </mxCell>
        <mxCell id="u6ekdoRCVKn9uhZl3rHA-56" value="" style="endArrow=classic;startArrow=classic;html=1;rounded=0;" edge="1" parent="1">
          <mxGeometry width="50" height="50" relative="1" as="geometry">
            <mxPoint x="1900" y="-2150" as="sourcePoint" />
            <mxPoint x="2000" y="-2150" as="targetPoint" />
          </mxGeometry>
        </mxCell>
        <mxCell id="u6ekdoRCVKn9uhZl3rHA-57" value="10位" style="edgeLabel;html=1;align=center;verticalAlign=middle;resizable=0;points=[];" vertex="1" connectable="0" parent="u6ekdoRCVKn9uhZl3rHA-56">
          <mxGeometry x="0.0286" y="-1" relative="1" as="geometry">
            <mxPoint y="-2" as="offset" />
          </mxGeometry>
        </mxCell>
        <mxCell id="u6ekdoRCVKn9uhZl3rHA-58" value="" style="endArrow=none;html=1;rounded=0;" edge="1" parent="1">
          <mxGeometry width="50" height="50" relative="1" as="geometry">
            <mxPoint x="2099" y="-2148" as="sourcePoint" />
            <mxPoint x="2099" y="-2168" as="targetPoint" />
          </mxGeometry>
        </mxCell>
        <mxCell id="u6ekdoRCVKn9uhZl3rHA-59" value="" style="endArrow=none;html=1;rounded=0;" edge="1" parent="1">
          <mxGeometry width="50" height="50" relative="1" as="geometry">
            <mxPoint x="2199" y="-2150" as="sourcePoint" />
            <mxPoint x="2199" y="-2170" as="targetPoint" />
          </mxGeometry>
        </mxCell>
        <mxCell id="u6ekdoRCVKn9uhZl3rHA-60" value="&lt;div&gt;2&lt;/div&gt;" style="endArrow=classic;startArrow=classic;html=1;rounded=0;" edge="1" parent="1">
          <mxGeometry width="50" height="50" relative="1" as="geometry">
            <mxPoint x="2100" y="-2152" as="sourcePoint" />
            <mxPoint x="2200" y="-2152" as="targetPoint" />
          </mxGeometry>
        </mxCell>
        <mxCell id="u6ekdoRCVKn9uhZl3rHA-61" value="&lt;div&gt;12位&lt;/div&gt;" style="edgeLabel;html=1;align=center;verticalAlign=middle;resizable=0;points=[];" vertex="1" connectable="0" parent="u6ekdoRCVKn9uhZl3rHA-60">
          <mxGeometry x="0.0286" y="-1" relative="1" as="geometry">
            <mxPoint x="1" y="-2" as="offset" />
          </mxGeometry>
        </mxCell>
        <mxCell id="u6ekdoRCVKn9uhZl3rHA-62" value="&lt;div&gt;2&lt;/div&gt;" style="endArrow=classic;startArrow=classic;html=1;rounded=0;" edge="1" parent="1">
          <mxGeometry width="50" height="50" relative="1" as="geometry">
            <mxPoint x="1999" y="-2150.5" as="sourcePoint" />
            <mxPoint x="2099" y="-2150.5" as="targetPoint" />
          </mxGeometry>
        </mxCell>
        <mxCell id="u6ekdoRCVKn9uhZl3rHA-63" value="&lt;div&gt;10位&lt;/div&gt;" style="edgeLabel;html=1;align=center;verticalAlign=middle;resizable=0;points=[];" vertex="1" connectable="0" parent="u6ekdoRCVKn9uhZl3rHA-62">
          <mxGeometry x="0.0286" y="-1" relative="1" as="geometry">
            <mxPoint x="1" y="-2" as="offset" />
          </mxGeometry>
        </mxCell>
        <mxCell id="u6ekdoRCVKn9uhZl3rHA-64" value="&lt;font style=&quot;font-size: 15px;&quot;&gt;1级页号0&lt;/font&gt;" style="rounded=0;whiteSpace=wrap;html=1;fillColor=#fff2cc;strokeColor=#d6b656;" vertex="1" parent="1">
          <mxGeometry x="1920" y="-2000" width="80" height="40" as="geometry" />
        </mxCell>
        <mxCell id="u6ekdoRCVKn9uhZl3rHA-65" value="&lt;font style=&quot;font-size: 15px;&quot;&gt;2级页表地址&lt;/font&gt;" style="rounded=0;whiteSpace=wrap;html=1;fillColor=#f8cecc;strokeColor=#b85450;" vertex="1" parent="1">
          <mxGeometry x="2000" y="-2000" width="90" height="40" as="geometry" />
        </mxCell>
        <mxCell id="u6ekdoRCVKn9uhZl3rHA-68" value="&lt;font style=&quot;font-size: 15px;&quot;&gt;1级页表项&lt;/font&gt;" style="text;html=1;align=center;verticalAlign=middle;whiteSpace=wrap;rounded=0;" vertex="1" parent="1">
          <mxGeometry x="1970" y="-2040" width="80" height="30" as="geometry" />
        </mxCell>
        <mxCell id="u6ekdoRCVKn9uhZl3rHA-69" value="..." style="rounded=0;whiteSpace=wrap;html=1;" vertex="1" parent="1">
          <mxGeometry x="1920" y="-1960" width="80" height="40" as="geometry" />
        </mxCell>
        <mxCell id="u6ekdoRCVKn9uhZl3rHA-70" value="..." style="rounded=0;whiteSpace=wrap;html=1;fillColor=#f5f5f5;strokeColor=#666666;fontColor=#333333;" vertex="1" parent="1">
          <mxGeometry x="2000" y="-1960" width="90" height="40" as="geometry" />
        </mxCell>
        <mxCell id="u6ekdoRCVKn9uhZl3rHA-71" value="&lt;font style=&quot;font-size: 15px;&quot;&gt;1级页号1023&lt;/font&gt;" style="rounded=0;whiteSpace=wrap;html=1;fillColor=#fff2cc;strokeColor=#d6b656;" vertex="1" parent="1">
          <mxGeometry x="1920" y="-1920" width="80" height="40" as="geometry" />
        </mxCell>
        <mxCell id="u6ekdoRCVKn9uhZl3rHA-72" value="&lt;font style=&quot;font-size: 15px;&quot;&gt;2级页表地址&lt;/font&gt;" style="rounded=0;whiteSpace=wrap;html=1;fillColor=#f8cecc;strokeColor=#b85450;" vertex="1" parent="1">
          <mxGeometry x="2000" y="-1920" width="90" height="40" as="geometry" />
        </mxCell>
        <mxCell id="u6ekdoRCVKn9uhZl3rHA-73" value="&lt;font style=&quot;font-size: 15px;&quot;&gt;2级页号0&lt;/font&gt;" style="rounded=0;whiteSpace=wrap;html=1;fillColor=#dae8fc;strokeColor=#6c8ebf;" vertex="1" parent="1">
          <mxGeometry x="2160" y="-2093" width="80" height="40" as="geometry" />
        </mxCell>
        <mxCell id="u6ekdoRCVKn9uhZl3rHA-74" value="&lt;font style=&quot;font-size: 15px;&quot;&gt;物理页号&lt;/font&gt;" style="rounded=0;whiteSpace=wrap;html=1;fillColor=#d5e8d4;strokeColor=#82b366;" vertex="1" parent="1">
          <mxGeometry x="2240" y="-2093" width="90" height="40" as="geometry" />
        </mxCell>
        <mxCell id="u6ekdoRCVKn9uhZl3rHA-75" value="&lt;font style=&quot;font-size: 15px;&quot;&gt;2级页表项&lt;/font&gt;" style="text;html=1;align=center;verticalAlign=middle;whiteSpace=wrap;rounded=0;" vertex="1" parent="1">
          <mxGeometry x="2210" y="-2133" width="80" height="30" as="geometry" />
        </mxCell>
        <mxCell id="u6ekdoRCVKn9uhZl3rHA-76" value="..." style="rounded=0;whiteSpace=wrap;html=1;" vertex="1" parent="1">
          <mxGeometry x="2160" y="-2053" width="80" height="40" as="geometry" />
        </mxCell>
        <mxCell id="u6ekdoRCVKn9uhZl3rHA-77" value="..." style="rounded=0;whiteSpace=wrap;html=1;fillColor=#f5f5f5;strokeColor=#666666;fontColor=#333333;" vertex="1" parent="1">
          <mxGeometry x="2240" y="-2053" width="90" height="40" as="geometry" />
        </mxCell>
        <mxCell id="u6ekdoRCVKn9uhZl3rHA-78" value="&lt;font style=&quot;font-size: 15px;&quot;&gt;2级页号1023&lt;/font&gt;" style="rounded=0;whiteSpace=wrap;html=1;fillColor=#dae8fc;strokeColor=#6c8ebf;" vertex="1" parent="1">
          <mxGeometry x="2160" y="-2013" width="80" height="40" as="geometry" />
        </mxCell>
        <mxCell id="u6ekdoRCVKn9uhZl3rHA-79" value="&lt;font style=&quot;font-size: 15px;&quot;&gt;物理页号&lt;/font&gt;" style="rounded=0;whiteSpace=wrap;html=1;fillColor=#d5e8d4;strokeColor=#82b366;" vertex="1" parent="1">
          <mxGeometry x="2240" y="-2013" width="90" height="40" as="geometry" />
        </mxCell>
        <mxCell id="u6ekdoRCVKn9uhZl3rHA-87" value="&lt;font style=&quot;font-size: 15px;&quot;&gt;2级页号0&lt;/font&gt;" style="rounded=0;whiteSpace=wrap;html=1;fillColor=#dae8fc;strokeColor=#6c8ebf;" vertex="1" parent="1">
          <mxGeometry x="2160" y="-1866" width="80" height="40" as="geometry" />
        </mxCell>
        <mxCell id="u6ekdoRCVKn9uhZl3rHA-88" value="&lt;font style=&quot;font-size: 15px;&quot;&gt;物理页号&lt;/font&gt;" style="rounded=0;whiteSpace=wrap;html=1;fillColor=#d5e8d4;strokeColor=#82b366;" vertex="1" parent="1">
          <mxGeometry x="2240" y="-1866" width="90" height="40" as="geometry" />
        </mxCell>
        <mxCell id="u6ekdoRCVKn9uhZl3rHA-89" value="&lt;font style=&quot;font-size: 15px;&quot;&gt;2级页表项&lt;/font&gt;" style="text;html=1;align=center;verticalAlign=middle;whiteSpace=wrap;rounded=0;" vertex="1" parent="1">
          <mxGeometry x="2210" y="-1906" width="80" height="30" as="geometry" />
        </mxCell>
        <mxCell id="u6ekdoRCVKn9uhZl3rHA-90" value="..." style="rounded=0;whiteSpace=wrap;html=1;" vertex="1" parent="1">
          <mxGeometry x="2160" y="-1826" width="80" height="40" as="geometry" />
        </mxCell>
        <mxCell id="u6ekdoRCVKn9uhZl3rHA-91" value="..." style="rounded=0;whiteSpace=wrap;html=1;fillColor=#f5f5f5;strokeColor=#666666;fontColor=#333333;" vertex="1" parent="1">
          <mxGeometry x="2240" y="-1826" width="90" height="40" as="geometry" />
        </mxCell>
        <mxCell id="u6ekdoRCVKn9uhZl3rHA-92" value="&lt;font style=&quot;font-size: 15px;&quot;&gt;2级页号1023&lt;/font&gt;" style="rounded=0;whiteSpace=wrap;html=1;fillColor=#dae8fc;strokeColor=#6c8ebf;" vertex="1" parent="1">
          <mxGeometry x="2160" y="-1786" width="80" height="40" as="geometry" />
        </mxCell>
        <mxCell id="u6ekdoRCVKn9uhZl3rHA-93" value="&lt;font style=&quot;font-size: 15px;&quot;&gt;物理页号&lt;/font&gt;" style="rounded=0;whiteSpace=wrap;html=1;fillColor=#d5e8d4;strokeColor=#82b366;" vertex="1" parent="1">
          <mxGeometry x="2240" y="-1786" width="90" height="40" as="geometry" />
        </mxCell>
        <mxCell id="u6ekdoRCVKn9uhZl3rHA-96" value="" style="endArrow=classic;html=1;rounded=0;exitX=0.01;exitY=0.5;exitDx=0;exitDy=0;exitPerimeter=0;entryX=0;entryY=0.475;entryDx=0;entryDy=0;entryPerimeter=0;" edge="1" parent="1" source="u6ekdoRCVKn9uhZl3rHA-48" target="u6ekdoRCVKn9uhZl3rHA-64">
          <mxGeometry width="50" height="50" relative="1" as="geometry">
            <mxPoint x="1950" y="-1690" as="sourcePoint" />
            <mxPoint x="2000" y="-1740" as="targetPoint" />
            <Array as="points">
              <mxPoint x="1850" y="-2190" />
              <mxPoint x="1850" y="-1981" />
            </Array>
          </mxGeometry>
        </mxCell>
        <mxCell id="u6ekdoRCVKn9uhZl3rHA-98" value="" style="endArrow=none;dashed=1;html=1;dashPattern=1 3;strokeWidth=2;rounded=0;entryX=-0.012;entryY=0.325;entryDx=0;entryDy=0;entryPerimeter=0;" edge="1" parent="1" target="u6ekdoRCVKn9uhZl3rHA-76">
          <mxGeometry width="50" height="50" relative="1" as="geometry">
            <mxPoint x="2100" y="-1980" as="sourcePoint" />
            <mxPoint x="2150" y="-2030" as="targetPoint" />
          </mxGeometry>
        </mxCell>
        <mxCell id="u6ekdoRCVKn9uhZl3rHA-99" value="" style="endArrow=none;dashed=1;html=1;dashPattern=1 3;strokeWidth=2;rounded=0;exitX=1.033;exitY=0.6;exitDx=0;exitDy=0;exitPerimeter=0;entryX=0;entryY=0.475;entryDx=0;entryDy=0;entryPerimeter=0;" edge="1" parent="1" source="u6ekdoRCVKn9uhZl3rHA-72" target="u6ekdoRCVKn9uhZl3rHA-90">
          <mxGeometry width="50" height="50" relative="1" as="geometry">
            <mxPoint x="2060" y="-1710" as="sourcePoint" />
            <mxPoint x="2110" y="-1760" as="targetPoint" />
          </mxGeometry>
        </mxCell>
        <mxCell id="u6ekdoRCVKn9uhZl3rHA-100" value="&lt;font style=&quot;font-size: 15px;&quot;&gt;......&lt;/font&gt;" style="rounded=0;whiteSpace=wrap;html=1;fillColor=#f5f5f5;fontColor=#333333;strokeColor=#666666;" vertex="1" parent="1">
          <mxGeometry x="2160" y="-1942" width="170" height="36" as="geometry" />
        </mxCell>
        <mxCell id="u6ekdoRCVKn9uhZl3rHA-101" value="" style="endArrow=none;dashed=1;html=1;dashPattern=1 3;strokeWidth=2;rounded=0;exitX=1.022;exitY=0.5;exitDx=0;exitDy=0;exitPerimeter=0;" edge="1" parent="1" source="u6ekdoRCVKn9uhZl3rHA-70">
          <mxGeometry width="50" height="50" relative="1" as="geometry">
            <mxPoint x="2040" y="-1650" as="sourcePoint" />
            <mxPoint x="2160" y="-1926" as="targetPoint" />
          </mxGeometry>
        </mxCell>
        <mxCell id="u6ekdoRCVKn9uhZl3rHA-102" value="&lt;div&gt;&lt;font style=&quot;font-size: 15px;&quot;&gt;1级页号的1024个页已经全部覆盖了4G的内存地址，当某些1级页号从来都不访问时对应的2级页表地址是空NULL,这样就节省了页表内存，相当于用1024个页号表示了全部4G地址空间&lt;/font&gt;&lt;/div&gt;&lt;div&gt;&lt;font style=&quot;font-size: 15px;&quot;&gt;&lt;font color=&quot;#ff3333&quot;&gt;对于linux操作系统来讲,一个进程有一个独立页表，节省的空间是巨大的&lt;/font&gt;。32位&lt;br&gt;&lt;/font&gt;&lt;/div&gt;" style="shape=callout;whiteSpace=wrap;html=1;perimeter=calloutPerimeter;flipV=1;flipH=1;position2=0.33;fillColor=#f5f5f5;fontColor=#333333;strokeColor=#666666;" vertex="1" parent="1">
          <mxGeometry x="1830" y="-1880" width="280" height="310" as="geometry" />
        </mxCell>
        <mxCell id="u6ekdoRCVKn9uhZl3rHA-103" value="" style="swimlane;startSize=0;dashed=1;" vertex="1" parent="1">
          <mxGeometry x="1790" y="-2460" width="590" height="920" as="geometry" />
        </mxCell>
        <mxCell id="u6ekdoRCVKn9uhZl3rHA-104" value="&lt;div&gt;&lt;font style=&quot;font-size: 20px;&quot; color=&quot;#ff3333&quot;&gt;页式内存管理方式&lt;/font&gt;&lt;/div&gt;&lt;div&gt;&lt;font style=&quot;font-size: 20px;&quot; color=&quot;#ff3333&quot;&gt;（2级页表方式）&lt;/font&gt;&lt;/div&gt;&lt;div&gt;&lt;font style=&quot;font-size: 20px;&quot; color=&quot;#ff3333&quot;&gt;32位操作系统&lt;br&gt;&lt;/font&gt;&lt;/div&gt;" style="shape=callout;whiteSpace=wrap;html=1;perimeter=calloutPerimeter;fillColor=#f5f5f5;fontColor=#333333;strokeColor=#666666;position2=0;size=30;position=0.32;base=13;" vertex="1" parent="u6ekdoRCVKn9uhZl3rHA-103">
          <mxGeometry x="274" y="10" width="200" height="120" as="geometry" />
        </mxCell>
        <mxCell id="u6ekdoRCVKn9uhZl3rHA-105" value="&lt;font style=&quot;font-size: 15px;&quot;&gt;64位虚拟地址&lt;/font&gt;" style="rounded=0;whiteSpace=wrap;html=1;fillColor=#e1d5e7;strokeColor=#9673a6;" vertex="1" parent="1">
          <mxGeometry x="2569" y="-2322" width="300" height="40" as="geometry" />
        </mxCell>
        <mxCell id="u6ekdoRCVKn9uhZl3rHA-106" value="&lt;div&gt;&lt;font style=&quot;font-size: 15px;&quot;&gt;全局页目录(1级页表)&lt;/font&gt;&lt;/div&gt;" style="rounded=0;whiteSpace=wrap;html=1;fillColor=#dae8fc;strokeColor=#6c8ebf;" vertex="1" parent="1">
          <mxGeometry x="2524" y="-2232" width="80" height="40" as="geometry" />
        </mxCell>
        <mxCell id="u6ekdoRCVKn9uhZl3rHA-108" value="&lt;div&gt;&lt;font style=&quot;font-size: 15px;&quot;&gt;上层页目录&lt;/font&gt;&lt;/div&gt;&lt;div&gt;&lt;font style=&quot;font-size: 15px;&quot;&gt;(2级页表)&lt;br&gt;&lt;/font&gt;&lt;/div&gt;" style="rounded=0;whiteSpace=wrap;html=1;fillColor=#ffe6cc;strokeColor=#d79b00;" vertex="1" parent="1">
          <mxGeometry x="2604" y="-2232" width="80" height="40" as="geometry" />
        </mxCell>
        <mxCell id="u6ekdoRCVKn9uhZl3rHA-110" value="&lt;div&gt;&lt;font style=&quot;font-size: 15px;&quot;&gt;中间页目录&lt;/font&gt;&lt;/div&gt;&lt;div&gt;&lt;font style=&quot;font-size: 15px;&quot;&gt;(3级页表)&lt;br&gt;&lt;/font&gt;&lt;/div&gt;" style="rounded=0;whiteSpace=wrap;html=1;fillColor=#f8cecc;strokeColor=#b85450;" vertex="1" parent="1">
          <mxGeometry x="2684" y="-2232" width="80" height="40" as="geometry" />
        </mxCell>
        <mxCell id="u6ekdoRCVKn9uhZl3rHA-111" value="&lt;div&gt;&lt;font style=&quot;font-size: 15px;&quot;&gt;页表项&lt;/font&gt;&lt;/div&gt;&lt;div&gt;&lt;font style=&quot;font-size: 15px;&quot;&gt;(4级页表)&lt;br&gt;&lt;/font&gt;&lt;/div&gt;" style="rounded=0;whiteSpace=wrap;html=1;fillColor=#d5e8d4;strokeColor=#82b366;" vertex="1" parent="1">
          <mxGeometry x="2764" y="-2232" width="80" height="40" as="geometry" />
        </mxCell>
        <mxCell id="u6ekdoRCVKn9uhZl3rHA-112" value="&lt;font style=&quot;font-size: 15px;&quot;&gt;页内偏移量&lt;/font&gt;" style="rounded=0;whiteSpace=wrap;html=1;fillColor=#e1d5e7;strokeColor=#9673a6;" vertex="1" parent="1">
          <mxGeometry x="2844" y="-2232" width="80" height="40" as="geometry" />
        </mxCell>
        <mxCell id="u6ekdoRCVKn9uhZl3rHA-113" value="" style="endArrow=none;dashed=1;html=1;dashPattern=1 3;strokeWidth=2;rounded=0;" edge="1" parent="1">
          <mxGeometry width="50" height="50" relative="1" as="geometry">
            <mxPoint x="2530" y="-2232" as="sourcePoint" />
            <mxPoint x="2570" y="-2282" as="targetPoint" />
          </mxGeometry>
        </mxCell>
        <mxCell id="u6ekdoRCVKn9uhZl3rHA-114" value="" style="endArrow=none;dashed=1;html=1;dashPattern=1 3;strokeWidth=2;rounded=0;" edge="1" parent="1">
          <mxGeometry width="50" height="50" relative="1" as="geometry">
            <mxPoint x="2869" y="-2282" as="sourcePoint" />
            <mxPoint x="2919" y="-2232" as="targetPoint" />
          </mxGeometry>
        </mxCell>
        <mxCell id="u6ekdoRCVKn9uhZl3rHA-117" value="&lt;font style=&quot;font-size: 15px;&quot;&gt;1级页号0&lt;/font&gt;" style="rounded=0;whiteSpace=wrap;html=1;fillColor=#dae8fc;strokeColor=#6c8ebf;" vertex="1" parent="1">
          <mxGeometry x="2514" y="-2042" width="80" height="40" as="geometry" />
        </mxCell>
        <mxCell id="u6ekdoRCVKn9uhZl3rHA-118" value="&lt;font style=&quot;font-size: 15px;&quot;&gt;2级页表地址&lt;/font&gt;" style="rounded=0;whiteSpace=wrap;html=1;fillColor=#ffe6cc;strokeColor=#d79b00;" vertex="1" parent="1">
          <mxGeometry x="2594" y="-2042" width="90" height="40" as="geometry" />
        </mxCell>
        <mxCell id="u6ekdoRCVKn9uhZl3rHA-119" value="..." style="rounded=0;whiteSpace=wrap;html=1;fillColor=#dae8fc;strokeColor=#6c8ebf;" vertex="1" parent="1">
          <mxGeometry x="2514" y="-2002" width="80" height="40" as="geometry" />
        </mxCell>
        <mxCell id="u6ekdoRCVKn9uhZl3rHA-120" value="..." style="rounded=0;whiteSpace=wrap;html=1;fillColor=#ffe6cc;strokeColor=#d79b00;" vertex="1" parent="1">
          <mxGeometry x="2594" y="-2002" width="90" height="40" as="geometry" />
        </mxCell>
        <mxCell id="u6ekdoRCVKn9uhZl3rHA-123" value="&lt;font style=&quot;font-size: 15px;&quot;&gt;2级页号0&lt;/font&gt;" style="rounded=0;whiteSpace=wrap;html=1;fillColor=#ffe6cc;strokeColor=#d79b00;" vertex="1" parent="1">
          <mxGeometry x="2750" y="-2098" width="80" height="40" as="geometry" />
        </mxCell>
        <mxCell id="u6ekdoRCVKn9uhZl3rHA-124" value="&lt;font style=&quot;font-size: 15px;&quot;&gt;3级页表地址&lt;/font&gt;" style="rounded=0;whiteSpace=wrap;html=1;fillColor=#f8cecc;strokeColor=#b85450;" vertex="1" parent="1">
          <mxGeometry x="2830" y="-2098" width="90" height="40" as="geometry" />
        </mxCell>
        <mxCell id="u6ekdoRCVKn9uhZl3rHA-125" value="..." style="rounded=0;whiteSpace=wrap;html=1;fillColor=#ffe6cc;strokeColor=#d79b00;" vertex="1" parent="1">
          <mxGeometry x="2750" y="-2058" width="80" height="40" as="geometry" />
        </mxCell>
        <mxCell id="u6ekdoRCVKn9uhZl3rHA-126" value="..." style="rounded=0;whiteSpace=wrap;html=1;fillColor=#f8cecc;strokeColor=#b85450;" vertex="1" parent="1">
          <mxGeometry x="2830" y="-2058" width="90" height="40" as="geometry" />
        </mxCell>
        <mxCell id="u6ekdoRCVKn9uhZl3rHA-131" value="&lt;font style=&quot;font-size: 15px;&quot;&gt;2级页号0&lt;/font&gt;" style="rounded=0;whiteSpace=wrap;html=1;fillColor=#ffe6cc;strokeColor=#d79b00;" vertex="1" parent="1">
          <mxGeometry x="2750" y="-1962" width="80" height="40" as="geometry" />
        </mxCell>
        <mxCell id="u6ekdoRCVKn9uhZl3rHA-132" value="&lt;font style=&quot;font-size: 15px;&quot;&gt;3级页表地址&lt;/font&gt;" style="rounded=0;whiteSpace=wrap;html=1;fillColor=#f8cecc;strokeColor=#b85450;" vertex="1" parent="1">
          <mxGeometry x="2830" y="-1962" width="90" height="40" as="geometry" />
        </mxCell>
        <mxCell id="u6ekdoRCVKn9uhZl3rHA-133" value="..." style="rounded=0;whiteSpace=wrap;html=1;fillColor=#ffe6cc;strokeColor=#d79b00;" vertex="1" parent="1">
          <mxGeometry x="2750" y="-1922" width="80" height="40" as="geometry" />
        </mxCell>
        <mxCell id="u6ekdoRCVKn9uhZl3rHA-134" value="..." style="rounded=0;whiteSpace=wrap;html=1;fillColor=#f8cecc;strokeColor=#b85450;" vertex="1" parent="1">
          <mxGeometry x="2830" y="-1922" width="90" height="40" as="geometry" />
        </mxCell>
        <mxCell id="u6ekdoRCVKn9uhZl3rHA-135" value="&lt;font style=&quot;font-size: 15px;&quot;&gt;3级页号0&lt;/font&gt;" style="rounded=0;whiteSpace=wrap;html=1;fillColor=#f8cecc;strokeColor=#b85450;" vertex="1" parent="1">
          <mxGeometry x="2594" y="-1819" width="80" height="40" as="geometry" />
        </mxCell>
        <mxCell id="u6ekdoRCVKn9uhZl3rHA-136" value="&lt;font style=&quot;font-size: 15px;&quot;&gt;4级页表地址&lt;/font&gt;" style="rounded=0;whiteSpace=wrap;html=1;fillColor=#d5e8d4;strokeColor=#82b366;" vertex="1" parent="1">
          <mxGeometry x="2674" y="-1819" width="90" height="40" as="geometry" />
        </mxCell>
        <mxCell id="u6ekdoRCVKn9uhZl3rHA-137" value="..." style="rounded=0;whiteSpace=wrap;html=1;fillColor=#f8cecc;strokeColor=#b85450;" vertex="1" parent="1">
          <mxGeometry x="2594" y="-1779" width="80" height="40" as="geometry" />
        </mxCell>
        <mxCell id="u6ekdoRCVKn9uhZl3rHA-138" value="..." style="rounded=0;whiteSpace=wrap;html=1;fillColor=#d5e8d4;strokeColor=#82b366;" vertex="1" parent="1">
          <mxGeometry x="2674" y="-1779" width="90" height="40" as="geometry" />
        </mxCell>
        <mxCell id="u6ekdoRCVKn9uhZl3rHA-139" value="&lt;font style=&quot;font-size: 15px;&quot;&gt;3级页号0&lt;/font&gt;" style="rounded=0;whiteSpace=wrap;html=1;fillColor=#f8cecc;strokeColor=#b85450;" vertex="1" parent="1">
          <mxGeometry x="2799" y="-1770" width="80" height="40" as="geometry" />
        </mxCell>
        <mxCell id="u6ekdoRCVKn9uhZl3rHA-140" value="&lt;font style=&quot;font-size: 15px;&quot;&gt;4级页表地址&lt;/font&gt;" style="rounded=0;whiteSpace=wrap;html=1;fillColor=#d5e8d4;strokeColor=#82b366;" vertex="1" parent="1">
          <mxGeometry x="2879" y="-1770" width="90" height="40" as="geometry" />
        </mxCell>
        <mxCell id="u6ekdoRCVKn9uhZl3rHA-141" value="..." style="rounded=0;whiteSpace=wrap;html=1;fillColor=#f8cecc;strokeColor=#b85450;" vertex="1" parent="1">
          <mxGeometry x="2799" y="-1730" width="80" height="40" as="geometry" />
        </mxCell>
        <mxCell id="u6ekdoRCVKn9uhZl3rHA-142" value="..." style="rounded=0;whiteSpace=wrap;html=1;fillColor=#d5e8d4;strokeColor=#82b366;" vertex="1" parent="1">
          <mxGeometry x="2879" y="-1730" width="90" height="40" as="geometry" />
        </mxCell>
        <mxCell id="u6ekdoRCVKn9uhZl3rHA-143" value="" style="endArrow=classic;html=1;rounded=0;exitX=1;exitY=0.45;exitDx=0;exitDy=0;exitPerimeter=0;dashed=1;" edge="1" parent="1" source="u6ekdoRCVKn9uhZl3rHA-118">
          <mxGeometry width="50" height="50" relative="1" as="geometry">
            <mxPoint x="2540" y="-1632" as="sourcePoint" />
            <mxPoint x="2830" y="-2102" as="targetPoint" />
            <Array as="points">
              <mxPoint x="2710" y="-2024" />
              <mxPoint x="2710" y="-2112" />
              <mxPoint x="2830" y="-2112" />
            </Array>
          </mxGeometry>
        </mxCell>
        <mxCell id="u6ekdoRCVKn9uhZl3rHA-144" value="" style="endArrow=classic;html=1;rounded=0;exitX=0.463;exitY=1;exitDx=0;exitDy=0;exitPerimeter=0;entryX=0.575;entryY=0;entryDx=0;entryDy=0;entryPerimeter=0;fillColor=#dae8fc;strokeColor=#6c8ebf;" edge="1" parent="1" source="u6ekdoRCVKn9uhZl3rHA-106" target="u6ekdoRCVKn9uhZl3rHA-117">
          <mxGeometry width="50" height="50" relative="1" as="geometry">
            <mxPoint x="2490" y="-1862" as="sourcePoint" />
            <mxPoint x="2540" y="-1912" as="targetPoint" />
          </mxGeometry>
        </mxCell>
        <mxCell id="u6ekdoRCVKn9uhZl3rHA-145" value="" style="endArrow=classic;html=1;rounded=0;exitX=0.575;exitY=1.05;exitDx=0;exitDy=0;exitPerimeter=0;entryX=-0.012;entryY=0.625;entryDx=0;entryDy=0;entryPerimeter=0;fillColor=#fff2cc;strokeColor=#d6b656;" edge="1" parent="1" source="u6ekdoRCVKn9uhZl3rHA-108" target="u6ekdoRCVKn9uhZl3rHA-125">
          <mxGeometry width="50" height="50" relative="1" as="geometry">
            <mxPoint x="2670" y="-2102" as="sourcePoint" />
            <mxPoint x="2720" y="-2032" as="targetPoint" />
            <Array as="points">
              <mxPoint x="2650" y="-2152" />
              <mxPoint x="2700" y="-2152" />
              <mxPoint x="2700" y="-2032" />
            </Array>
          </mxGeometry>
        </mxCell>
        <mxCell id="u6ekdoRCVKn9uhZl3rHA-146" value="" style="endArrow=classic;html=1;rounded=0;exitX=1.011;exitY=0.35;exitDx=0;exitDy=0;exitPerimeter=0;dashed=1;entryX=0.022;entryY=-0.05;entryDx=0;entryDy=0;entryPerimeter=0;" edge="1" parent="1" source="u6ekdoRCVKn9uhZl3rHA-120" target="u6ekdoRCVKn9uhZl3rHA-132">
          <mxGeometry width="50" height="50" relative="1" as="geometry">
            <mxPoint x="2660" y="-1862" as="sourcePoint" />
            <mxPoint x="2830" y="-1982" as="targetPoint" />
            <Array as="points">
              <mxPoint x="2710" y="-1988" />
              <mxPoint x="2832" y="-1988" />
            </Array>
          </mxGeometry>
        </mxCell>
        <mxCell id="u6ekdoRCVKn9uhZl3rHA-147" value="" style="endArrow=classic;html=1;rounded=0;exitX=1.022;exitY=0.5;exitDx=0;exitDy=0;exitPerimeter=0;dashed=1;" edge="1" parent="1" source="u6ekdoRCVKn9uhZl3rHA-124">
          <mxGeometry width="50" height="50" relative="1" as="geometry">
            <mxPoint x="3060" y="-1812" as="sourcePoint" />
            <mxPoint x="2880" y="-1772" as="targetPoint" />
            <Array as="points">
              <mxPoint x="2980" y="-2078" />
              <mxPoint x="2980" y="-1802" />
              <mxPoint x="2880" y="-1802" />
            </Array>
          </mxGeometry>
        </mxCell>
        <mxCell id="u6ekdoRCVKn9uhZl3rHA-148" value="" style="endArrow=classic;html=1;rounded=0;exitX=1.033;exitY=0.525;exitDx=0;exitDy=0;exitPerimeter=0;dashed=1;" edge="1" parent="1" source="u6ekdoRCVKn9uhZl3rHA-132">
          <mxGeometry width="50" height="50" relative="1" as="geometry">
            <mxPoint x="2990" y="-1552" as="sourcePoint" />
            <mxPoint x="2670" y="-1818" as="targetPoint" />
            <Array as="points">
              <mxPoint x="2960" y="-1942" />
              <mxPoint x="2960" y="-1842" />
              <mxPoint x="2670" y="-1842" />
            </Array>
          </mxGeometry>
        </mxCell>
        <mxCell id="u6ekdoRCVKn9uhZl3rHA-149" value="" style="endArrow=classic;html=1;rounded=0;exitX=0.513;exitY=1.05;exitDx=0;exitDy=0;exitPerimeter=0;entryX=0.006;entryY=0.45;entryDx=0;entryDy=0;entryPerimeter=0;fillColor=#f8cecc;strokeColor=#b85450;" edge="1" parent="1" source="u6ekdoRCVKn9uhZl3rHA-110" target="u6ekdoRCVKn9uhZl3rHA-137">
          <mxGeometry width="50" height="50" relative="1" as="geometry">
            <mxPoint x="2850" y="-2132" as="sourcePoint" />
            <mxPoint x="2600" y="-1762" as="targetPoint" />
            <Array as="points">
              <mxPoint x="2725" y="-2042" />
              <mxPoint x="2725" y="-1882" />
              <mxPoint x="2560" y="-1882" />
              <mxPoint x="2560" y="-1761" />
            </Array>
          </mxGeometry>
        </mxCell>
        <mxCell id="u6ekdoRCVKn9uhZl3rHA-150" value="&lt;font style=&quot;font-size: 15px;&quot;&gt;4级页号0&lt;/font&gt;" style="rounded=0;whiteSpace=wrap;html=1;fillColor=#d5e8d4;strokeColor=#82b366;" vertex="1" parent="1">
          <mxGeometry x="2530" y="-1672" width="80" height="40" as="geometry" />
        </mxCell>
        <mxCell id="u6ekdoRCVKn9uhZl3rHA-151" value="&lt;font style=&quot;font-size: 15px;&quot;&gt;物理页号&lt;/font&gt;" style="rounded=0;whiteSpace=wrap;html=1;fillColor=#f5f5f5;strokeColor=#666666;fontColor=#333333;" vertex="1" parent="1">
          <mxGeometry x="2610" y="-1672" width="90" height="40" as="geometry" />
        </mxCell>
        <mxCell id="u6ekdoRCVKn9uhZl3rHA-152" value="..." style="rounded=0;whiteSpace=wrap;html=1;fillColor=#d5e8d4;strokeColor=#82b366;" vertex="1" parent="1">
          <mxGeometry x="2530" y="-1632" width="80" height="40" as="geometry" />
        </mxCell>
        <mxCell id="u6ekdoRCVKn9uhZl3rHA-153" value="..." style="rounded=0;whiteSpace=wrap;html=1;fillColor=#f5f5f5;strokeColor=#666666;fontColor=#333333;" vertex="1" parent="1">
          <mxGeometry x="2610" y="-1632" width="90" height="40" as="geometry" />
        </mxCell>
        <mxCell id="u6ekdoRCVKn9uhZl3rHA-154" value="&lt;font style=&quot;font-size: 15px;&quot;&gt;4级页号0&lt;/font&gt;" style="rounded=0;whiteSpace=wrap;html=1;fillColor=#d5e8d4;strokeColor=#82b366;" vertex="1" parent="1">
          <mxGeometry x="2799" y="-1642" width="80" height="40" as="geometry" />
        </mxCell>
        <mxCell id="u6ekdoRCVKn9uhZl3rHA-155" value="&lt;font style=&quot;font-size: 15px;&quot;&gt;物理页号&lt;/font&gt;" style="rounded=0;whiteSpace=wrap;html=1;fillColor=#f5f5f5;strokeColor=#666666;fontColor=#333333;" vertex="1" parent="1">
          <mxGeometry x="2879" y="-1642" width="90" height="40" as="geometry" />
        </mxCell>
        <mxCell id="u6ekdoRCVKn9uhZl3rHA-156" value="..." style="rounded=0;whiteSpace=wrap;html=1;fillColor=#d5e8d4;strokeColor=#82b366;" vertex="1" parent="1">
          <mxGeometry x="2799" y="-1602" width="80" height="40" as="geometry" />
        </mxCell>
        <mxCell id="u6ekdoRCVKn9uhZl3rHA-157" value="..." style="rounded=0;whiteSpace=wrap;html=1;fillColor=#f5f5f5;strokeColor=#666666;fontColor=#333333;" vertex="1" parent="1">
          <mxGeometry x="2879" y="-1602" width="90" height="40" as="geometry" />
        </mxCell>
        <mxCell id="u6ekdoRCVKn9uhZl3rHA-158" value="" style="endArrow=classic;html=1;rounded=0;exitX=0.488;exitY=1.05;exitDx=0;exitDy=0;exitPerimeter=0;entryX=0;entryY=0.5;entryDx=0;entryDy=0;entryPerimeter=0;fillColor=#d5e8d4;strokeColor=#82b366;" edge="1" parent="1" source="u6ekdoRCVKn9uhZl3rHA-111" target="u6ekdoRCVKn9uhZl3rHA-152">
          <mxGeometry width="50" height="50" relative="1" as="geometry">
            <mxPoint x="3000" y="-2132" as="sourcePoint" />
            <mxPoint x="3050" y="-2182" as="targetPoint" />
            <Array as="points">
              <mxPoint x="2803" y="-2142" />
              <mxPoint x="2690" y="-2142" />
              <mxPoint x="2690" y="-1862" />
              <mxPoint x="2500" y="-1862" />
              <mxPoint x="2500" y="-1612" />
            </Array>
          </mxGeometry>
        </mxCell>
        <mxCell id="u6ekdoRCVKn9uhZl3rHA-159" value="" style="endArrow=classic;html=1;rounded=0;exitX=1;exitY=0.5;exitDx=0;exitDy=0;exitPerimeter=0;entryX=-0.011;entryY=-0.05;entryDx=0;entryDy=0;entryPerimeter=0;dashed=1;" edge="1" parent="1" source="u6ekdoRCVKn9uhZl3rHA-140" target="u6ekdoRCVKn9uhZl3rHA-155">
          <mxGeometry width="50" height="50" relative="1" as="geometry">
            <mxPoint x="3110" y="-1642" as="sourcePoint" />
            <mxPoint x="3160" y="-1692" as="targetPoint" />
            <Array as="points">
              <mxPoint x="2990" y="-1750" />
              <mxPoint x="2990" y="-1672" />
              <mxPoint x="2878" y="-1672" />
            </Array>
          </mxGeometry>
        </mxCell>
        <mxCell id="u6ekdoRCVKn9uhZl3rHA-160" value="" style="endArrow=classic;html=1;rounded=0;exitX=1.028;exitY=0.575;exitDx=0;exitDy=0;exitPerimeter=0;entryX=0.988;entryY=0.05;entryDx=0;entryDy=0;entryPerimeter=0;dashed=1;" edge="1" parent="1" source="u6ekdoRCVKn9uhZl3rHA-136" target="u6ekdoRCVKn9uhZl3rHA-150">
          <mxGeometry width="50" height="50" relative="1" as="geometry">
            <mxPoint x="3060" y="-1542" as="sourcePoint" />
            <mxPoint x="3110" y="-1592" as="targetPoint" />
            <Array as="points">
              <mxPoint x="2790" y="-1796" />
              <mxPoint x="2790" y="-1702" />
              <mxPoint x="2610" y="-1702" />
            </Array>
          </mxGeometry>
        </mxCell>
        <mxCell id="u6ekdoRCVKn9uhZl3rHA-161" value="" style="swimlane;startSize=0;dashed=1;" vertex="1" parent="1">
          <mxGeometry x="2440" y="-2460" width="590" height="920" as="geometry" />
        </mxCell>
        <mxCell id="u6ekdoRCVKn9uhZl3rHA-162" value="&lt;div&gt;&lt;font style=&quot;font-size: 20px;&quot; color=&quot;#ff3333&quot;&gt;页式内存管理方式&lt;/font&gt;&lt;/div&gt;&lt;div&gt;&lt;font style=&quot;font-size: 20px;&quot; color=&quot;#ff3333&quot;&gt;（4级页表方式）&lt;/font&gt;&lt;/div&gt;&lt;div&gt;&lt;font style=&quot;font-size: 20px;&quot; color=&quot;#ff3333&quot;&gt;64位操作系统&lt;br&gt;&lt;/font&gt;&lt;/div&gt;" style="shape=callout;whiteSpace=wrap;html=1;perimeter=calloutPerimeter;fillColor=#f5f5f5;fontColor=#333333;strokeColor=#666666;position2=0.33;size=30;position=0.32;base=13;" vertex="1" parent="u6ekdoRCVKn9uhZl3rHA-161">
          <mxGeometry x="124" y="20" width="404" height="110" as="geometry" />
        </mxCell>
      </root>
    </mxGraphModel>
  </diagram>
</mxfile>
